<svg width="81" height="88" viewBox="0 0 81 88" fill="none" xmlns="http://www.w3.org/2000/svg">
<g clip-path="url(#clip0_304_67)">
<path d="M77.6798 32.8313C80.0634 30.8412 79.7504 27.4587 77.83 25.2542C75.6312 25.2257 74.3909 24.8132 72.7076 23.045C69.9241 20.1337 66.8553 20.5113 63.3082 20.251C63.1023 20.2336 62.9471 20.1566 62.8264 20.0365C62.7707 20.0191 62.7075 19.9852 62.6501 19.9448C62.3362 19.7303 62.2729 19.8843 61.9996 20.2024C61.6595 20.5856 61.3355 20.9779 60.9196 21.2731C60.7508 21.384 60.5846 21.4188 60.4344 21.4014C60.2716 21.5389 60.053 21.6049 59.7923 21.5444C58.2229 21.1585 57.4188 19.5442 58.0567 17.8897C58.1774 17.589 58.4541 17.0738 58.0727 16.8648C57.7749 16.6989 57.4433 16.6247 57.1134 16.5697C56.5396 16.4725 55.9549 16.4322 55.3964 16.2635C55.2833 16.2919 55.1567 16.2983 55.0175 16.258C53.4473 15.8024 52.1808 14.5576 50.6165 14.1423C49.4758 13.8453 48.6936 13.4704 48.0304 12.3713C47.9747 12.2732 47.9435 12.1816 47.9224 12.0872C47.822 11.9185 47.7849 11.6958 47.8642 11.429C48.3122 9.97792 47.3267 8.72758 46.6028 7.59917C46.0603 6.75492 45.565 5.89875 45.2461 4.94267C44.6065 5.48167 43.6058 7.74217 43.1814 8.15467C41.7698 9.51408 39.5575 8.2115 37.9063 8.47825C37.087 11.4803 33.4842 9.24275 31.6355 10.505C31.5562 10.5563 31.4777 10.5903 31.4069 10.6077C31.2432 10.7397 31.0297 10.7828 30.7741 10.6819C29.3861 10.1383 28.5803 8.8275 28.5803 7.21325C28.5752 6.27367 28.8756 5.50092 28.9963 4.59067C29.1102 3.74092 28.652 3.06533 28.1778 2.42733C27.1662 3.19733 26.4844 4.42475 25.304 4.94633C23.787 5.62192 22.3281 5.49267 20.8853 4.829C20.822 4.86842 20.7537 4.90875 20.6744 4.92342C20.5765 4.94633 20.4769 4.972 20.385 5.00317C20.3689 5.00867 20.3639 5.01508 20.3529 5.02058C20.3158 5.038 20.2795 5.06092 20.2424 5.07742C20.2213 5.09483 20.1951 5.11225 20.174 5.12875C20.169 5.13517 20.1555 5.15167 20.1242 5.181C20.0871 5.22408 20.05 5.27542 20.0129 5.32125C20.0871 5.70167 20.5453 6.19392 20.6457 6.5285C20.7326 6.81817 20.7478 7.10142 20.7267 7.40208C20.7115 7.65692 20.5925 7.96308 20.7056 8.206C20.7216 8.24083 20.7326 8.26925 20.7427 8.30042C20.9064 8.48925 21.0034 8.74408 20.9612 9.05025C20.4162 13.1633 15.6068 11.99 13.748 9.70567C13.7421 9.70567 13.7421 9.70567 13.7421 9.70017C12.4967 9.82025 11.4167 10.3757 10.4211 11.22C10.3426 11.2887 10.2583 11.3318 10.1764 11.3602C10.1452 11.4116 10.1131 11.4574 10.071 11.5033C9.7073 11.9102 9.87858 11.9955 10.087 12.4227C10.1815 12.6198 10.2473 12.8636 10.3578 13.0433C10.5139 13.2871 10.6135 13.5162 10.6135 13.8224C10.6186 14.6868 9.94693 15.3102 9.49721 15.9628C10.2743 17.2883 10.9426 18.1784 10.6818 19.9127C10.5139 21.0549 10.2583 22.5289 9.37824 23.2989C9.26771 23.397 9.15464 23.4428 9.03314 23.4712C8.9648 23.5226 8.89393 23.551 8.81461 23.5831C8.68552 23.6454 8.54883 23.6344 8.42227 23.6912C8.31427 23.7426 8.19868 23.6518 8.09068 23.6518C8.08561 23.6518 8.08561 23.6518 8.08561 23.6518C7.70846 23.6518 7.44268 23.4538 7.34564 23.0963C7.28743 23.0963 7.23427 23.1651 7.18196 23.1761C7.17436 23.1761 7.17436 23.1761 7.16846 23.1761C7.1558 23.1761 7.14483 23.1816 7.12627 23.188C7.08493 23.1935 7.04274 23.2045 7.00055 23.2219C6.98452 23.2274 6.97355 23.2274 6.96343 23.2338C6.95836 23.2338 6.95836 23.2338 6.95246 23.2393C6.95246 23.2393 6.95246 23.2393 6.94739 23.2393C6.89002 23.4767 6.77105 23.6344 6.62086 23.7316C6.58964 23.76 6.55758 23.7948 6.52636 23.8232C6.07833 24.1835 5.55183 24.3384 5.00424 24.4273C4.56633 24.5016 4.08455 24.5355 3.75296 24.8939C3.68968 24.9535 3.62133 24.9993 3.56058 25.0397C3.28383 25.3972 3.25768 25.7867 3.21043 26.2533C3.16318 26.7456 3.08133 27.1865 2.88643 27.6302C2.88643 27.885 2.77336 28.1334 2.48649 28.2801C1.8908 28.5862 1.59886 29.4131 1.63008 30.1006C1.63514 30.2179 1.61996 30.3206 1.58789 30.4177C1.68324 30.7129 2.00133 31.0136 2.17261 31.2162C2.45949 31.5517 2.7413 31.8945 2.95477 32.2868C3.02902 32.4243 3.05011 32.5536 3.05518 32.6819C3.08893 32.8139 3.08893 32.9514 3.07627 33.0972C3.07627 33.0972 3.05518 33.1027 3.05518 33.1082H3.00202C3.00202 33.1146 3.06277 33.1201 3.06277 33.1256C3.06277 33.1201 3.11002 33.1082 3.11002 33.1027C3.11002 33.0917 3.11002 33.0798 3.10496 33.0623C3.11002 33.0798 3.11002 33.0917 3.11593 33.1027C3.11593 33.0917 3.12099 33.0917 3.12099 33.0917C3.13111 33.0917 3.13702 33.1256 3.13702 33.143C3.15221 33.1604 3.15811 33.1659 3.16824 33.1769C3.16824 33.1769 3.16824 33.1769 3.1733 33.1833C3.21549 33.2118 3.26274 33.2319 3.30493 33.2631C3.34205 33.2713 3.39183 33.2942 3.4028 33.3007C3.47114 33.3172 3.53443 33.3401 3.60024 33.352C3.59518 33.352 3.58927 33.352 3.58674 33.352C3.59518 33.352 3.6053 33.3575 3.61627 33.3575C3.65255 33.363 3.68461 33.3694 3.71583 33.3804C3.99258 33.3401 4.27439 33.4492 4.46171 33.7782C5.11477 34.9543 6.07327 34.7976 7.16086 34.4456C7.17689 34.4392 7.19293 34.4392 7.20811 34.4392C7.60046 34.2824 8.1008 34.4107 8.25099 34.9717C8.41468 35.5557 8.34043 36.1515 8.44083 36.7409C9.43139 37.4302 11.3484 36.9609 12.3752 36.7867C12.3862 36.7867 12.3913 36.7867 12.4022 36.7867C12.76 36.5493 12.9448 36.1286 13.2949 35.8792C13.6527 35.6299 14.0298 35.4328 14.4348 35.2843C15.3942 34.9314 16.3181 34.3337 17.3297 34.1623C18.0064 34.056 18.4173 34.7976 18.2832 35.3237C18.3043 35.3925 18.3144 35.464 18.3195 35.5502C18.3355 36.3541 18.5701 37.1387 18.5802 37.9427C19.3573 38.6962 20.0922 39.4313 21.1561 39.6917C21.7755 39.8411 22.318 40.0097 22.8706 40.3443C24.0958 41.0914 25.2728 42.9834 26.9055 42.4508C27.0211 42.4142 27.124 42.4087 27.2244 42.4169C27.3687 42.394 27.5374 42.4279 27.7036 42.537C29.1836 43.5077 29.2891 45.76 28.5702 47.3147C28.7145 47.9151 29.705 47.9041 30.148 47.9701C30.9192 48.0902 31.6144 48.2817 32.0937 49.0032C32.1359 49.0692 32.1679 49.1379 32.1856 49.2002C32.265 49.3212 32.3181 49.467 32.3282 49.6476C32.3544 50.0967 32.4523 50.457 32.7974 50.7237C33.2344 51.0638 33.6791 51.3874 34.0537 51.8082C34.3718 52.1629 34.3144 52.6066 34.0951 52.9127C34.0006 54.2557 33.5896 55.4666 33.334 56.7829C33.01 58.4201 33.5795 59.4339 33.9398 60.8786C34.5751 60.9703 35.2434 61.0023 35.8366 61.2572C36.687 61.6257 37.2718 62.216 37.7401 63.0777C37.7721 63.1345 37.7907 63.1831 37.8118 63.2408C37.8168 63.2518 37.8219 63.2573 37.827 63.2638C38.291 64.042 38.7964 65.8478 39.8975 65.5188C40.1793 65.4326 40.4139 65.5133 40.5818 65.6737C40.8484 65.7855 41.056 66.0339 41.0619 66.4317C41.0771 67.6885 41.5622 68.6528 41.9883 69.7923C42.0466 69.9499 42.0567 70.0874 42.0356 70.2103C42.1495 70.7309 42.1596 71.2663 41.9672 71.7704C41.7808 72.2572 41.488 72.6578 41.2171 73.0959C41.1378 73.2188 41.0459 73.304 40.9404 73.3672C40.856 73.5423 40.7109 73.6908 40.4873 73.7678C38.4387 74.4553 36.3048 76.4097 35.5075 78.6427C36.9689 79.4411 38.599 79.9856 39.8393 81.1534C40.4029 81.6796 40.8223 82.2296 41.0881 82.9932C41.493 84.1445 42.1546 84.8623 42.8945 85.7184C44.6014 84.9942 45.9413 81.2873 47.0399 79.8224C48.0304 78.5052 48.7442 77.088 49.3762 75.5425C49.8605 74.3408 50.6958 73.293 50.9616 72.0078C50.9405 71.8822 50.9456 71.742 50.9928 71.5871C52.4998 66.8388 55.9921 65.6737 59.6944 63.5241C61.7118 62.3498 64.9544 64.4023 66.1997 61.2572C67.2485 58.6181 67.9885 56.0212 69.2339 53.4453C69.26 53.3821 69.2921 53.3307 69.3284 53.2849C69.3604 53.2189 69.3916 53.1511 69.4423 53.0823C71.7415 50.0051 69.0466 45.3878 71.3196 42.1107C71.388 42.0108 71.4723 41.9357 71.5542 41.8788C71.5643 41.8614 71.5702 41.844 71.5803 41.8302C72.5338 40.2701 73.3159 38.5926 74.3588 37.1048C75.2093 35.8912 76.6108 35.0689 77.1482 33.6233C77.2056 33.4666 77.2959 33.352 77.398 33.2631C77.4461 33.1027 77.5406 32.9542 77.6798 32.8313ZM78.9522 24.0726C81.5855 27.0921 81.6387 31.4939 78.6181 34.1623C78.062 35.5905 77.101 36.3202 76.1416 37.4302C74.817 38.9794 74.0011 40.9402 72.9312 42.6855C72.8578 42.8037 72.7683 42.889 72.6814 42.9495C72.6764 42.9577 72.6764 42.9632 72.6705 42.9697C70.4134 46.2266 73.024 50.7632 70.6379 54.1521C70.6269 54.2043 70.6058 54.2502 70.5847 54.3015C69.7553 56.0102 68.7917 57.7509 68.3125 59.62C68.1091 60.4157 67.9564 61.3947 67.5506 62.1124C66.8477 63.3664 65.8445 64.3078 64.5114 64.68C63.4795 64.9752 62.6341 65.032 61.565 64.9926C60.1264 64.9348 59.616 65.802 58.5731 66.4088C57.2484 67.1788 55.8419 67.0386 54.7036 68.3128C53.708 69.4228 52.974 70.5567 52.5048 72.0308C52.5209 72.1197 52.5209 72.2168 52.5048 72.3259C52.2129 74.0199 51.1169 75.5544 50.4292 77.1054C49.6319 78.9204 48.4936 80.1937 47.498 81.8317C46.3843 83.6578 45.2461 87.0063 43.0051 87.4583C42.8338 87.4931 42.6811 87.4702 42.5469 87.4133C42.3596 87.4243 42.1546 87.3501 41.9833 87.1466C41.4036 86.4683 40.4873 85.7698 40.1211 84.8971C39.8393 84.2068 39.6579 83.2141 39.1154 82.7099C37.6405 81.3276 35.7176 80.7895 34.0638 79.7243C33.5475 79.3952 33.6158 78.749 33.9398 78.3878C34.8089 75.5599 37.3114 73.1353 39.8866 72.1939C40.2637 71.6155 40.6847 71.1746 40.4822 70.4367C40.4561 70.3358 40.4451 70.2442 40.4451 70.1589C40.0688 69.1625 39.7102 68.2843 39.5625 67.2705C38.0067 67.2531 37.2844 65.4784 36.4736 64.119C36.4365 64.0558 36.4103 63.9962 36.3892 63.9329C35.6332 62.5396 34.3296 62.7248 33.0311 62.436C32.5788 62.3361 32.4227 61.9328 32.4835 61.5487C32.173 60.1581 31.5461 59.1387 31.6144 57.6556C31.6963 55.9726 32.4624 54.4298 32.5468 52.7358C32.5468 52.701 32.5518 52.6753 32.5577 52.6414C32.2177 52.3637 31.849 52.1198 31.541 51.7852C31.0618 51.2591 30.8584 50.6229 30.785 49.9189C30.769 49.896 30.753 49.8822 30.7378 49.8648C30.6188 49.676 30.0552 49.6586 29.8662 49.6302C29.4654 49.5697 29.0494 49.5357 28.6621 49.4037C27.6615 49.0747 27.0978 48.3679 26.9848 47.234C26.9586 47.0021 27.0211 46.8224 27.1189 46.6849C27.1291 46.6556 27.14 46.6272 27.1561 46.5932C27.4902 45.9378 27.6353 44.7352 27.0767 44.1567C25.4567 44.5262 23.7557 43.3757 22.5728 42.2647C21.6303 41.3747 20.5765 41.5122 19.5547 40.8824C18.7093 40.3672 18.0326 39.6807 17.3086 38.9849C17.161 38.8419 17.0842 38.6842 17.0631 38.5266C17.0268 38.4239 17.0057 38.3038 17.0159 38.1691C17.0479 37.4651 16.8741 36.7812 16.7923 36.0882C16.2286 36.3174 15.6811 36.6153 15.1124 36.8271C14.2636 37.1387 13.9083 37.8061 13.1734 38.269C13.1161 38.2983 13.0629 38.3267 13.0106 38.3442C12.9498 38.3781 12.8756 38.4129 12.7887 38.4239C11.0354 38.7246 8.58005 39.2342 7.1423 37.7832C6.92124 37.5622 6.87146 37.3019 6.91364 37.0645C6.88158 36.8042 6.86555 36.5374 6.85543 36.2771C5.47758 36.5548 4.23221 36.2917 3.34458 35.0121C2.8763 34.9204 2.42827 34.7517 2.07305 34.3878C1.71952 34.0276 1.57186 33.5784 1.57186 33.0852C1.32211 32.6562 0.958457 32.3097 0.660613 31.9119C0.29527 31.4252 0.0767383 30.9329 0.00501949 30.3096C-0.010168 30.1803 0.0210507 30.0547 0.070832 29.9402C0.070832 28.8411 0.587207 27.5788 1.45374 26.972C1.46386 26.9491 1.46977 26.9262 1.47989 26.9032C1.70939 26.4449 1.65624 25.8839 1.74061 25.3807C1.83849 24.7445 2.09921 24.2183 2.51264 23.76C2.60461 23.6573 2.69911 23.5941 2.79952 23.551C3.22055 23.1651 3.71583 22.9387 4.27439 22.8415C4.72749 22.7608 5.16455 22.704 5.55689 22.4611C5.92055 21.6792 6.77611 21.4592 7.56418 21.4527C7.57936 21.4527 7.59539 21.4592 7.61143 21.4592C7.7768 21.4362 7.94302 21.4647 8.09068 21.5737C8.22483 21.6792 8.34043 21.7937 8.44589 21.9111C8.94118 21.296 9.07533 20.2281 9.17574 19.4636C9.33099 18.2297 8.52774 17.5028 7.97508 16.5238C7.86118 16.3267 7.83502 16.126 7.87214 15.9463C7.84008 15.7767 7.86708 15.5824 7.97508 15.3853C8.25689 14.8757 8.69143 14.5007 8.92852 13.9682C8.95214 13.9223 8.96986 13.8875 8.98589 13.8536C8.89899 13.6675 8.83064 13.4704 8.73614 13.2807C8.16661 12.1733 8.11177 11.2603 8.9648 10.3015C9.04918 10.2043 9.14368 10.1438 9.23058 10.098C9.25758 10.0751 9.28374 10.0467 9.31496 10.0182C10.7536 8.79542 12.2731 8.01992 14.1218 7.97408C14.4981 7.96858 14.7327 8.195 14.8246 8.48375C14.8356 8.49567 14.8407 8.50117 14.8516 8.50667C15.8886 9.77442 18.7093 11.1228 19.3522 9.05667C19.1573 8.65242 19.0755 8.2775 19.1126 7.82008C19.1497 7.36175 19.2256 7.10692 18.9759 6.70358C18.5751 6.05917 18.3962 5.51008 18.4966 4.72542C18.538 4.42475 18.6831 4.24508 18.873 4.16442C19.2155 3.68958 19.726 3.40633 20.2584 3.28258C20.3267 3.27158 20.39 3.27433 20.4558 3.27433C20.6744 3.08825 20.9773 3.01675 21.2962 3.17992C22.8183 3.97833 24.5067 3.90958 25.7284 2.55017C26.395 1.80308 27.0211 1.09083 27.8901 0.62975C28.1989 0.466583 28.4959 0.535333 28.7145 0.7095C28.8706 0.755333 29.0174 0.85525 29.1363 1.03308C29.8788 2.10375 30.6188 3.01675 30.5876 4.422C30.5555 5.79608 29.376 8.10333 30.9926 8.94758C31.8751 8.415 32.8919 8.38108 33.8824 8.44983C34.7726 8.50667 36.2626 8.91275 36.4846 7.65692C36.5394 7.32783 36.7242 7.14175 36.9368 7.073C37.0237 6.98133 37.1401 6.90708 37.2903 6.875C38.6724 6.5285 39.7845 7.0785 41.1488 7.05008C42.3942 7.02075 42.6389 6.25075 43.1814 5.20392C43.7821 4.04158 44.5643 2.72158 45.9599 3.19092C46.2054 3.27158 46.3632 3.44025 46.4425 3.63825C46.5083 3.72992 46.5606 3.83808 46.5918 3.97283C47.2322 6.62933 50.1322 8.624 49.4446 11.5894C50.0689 12.5171 51.3143 12.5171 52.2281 13.0002C53.2819 13.5584 54.2506 14.2633 55.3888 14.6034C55.5018 14.575 55.6335 14.5695 55.7786 14.6153C56.9877 14.9985 58.4988 14.7492 59.4076 15.8941C59.8817 16.4954 59.945 17.369 59.6683 18.0812C59.3493 18.9026 59.2548 19.5782 60.0691 19.8559C60.0901 19.8385 60.1053 19.8156 60.1323 19.7991C60.6377 19.4462 60.9508 18.8366 61.457 18.4681C62.0865 18.0097 62.8104 18.0473 63.4373 18.4791C63.4795 18.5075 63.5107 18.5332 63.5402 18.5652C66.3373 18.7339 69.0364 18.3132 71.5643 19.9558C72.6232 20.6488 73.3902 21.4757 74.2854 22.3887C75.497 23.6225 76.6952 23.5657 78.2493 23.5565C78.6181 23.5565 78.8518 23.7829 78.9522 24.0726Z" fill="black"/>
<path d="M3.60028 33.352C3.67959 33.3687 3.68466 33.3687 3.61631 33.3573C3.61631 33.3573 3.61041 33.3573 3.60028 33.352Z" fill="black"/>
</g>
<defs>
<clipPath id="clip0_304_67">
<rect width="81" height="88" fill="white"/>
</clipPath>
</defs>
</svg>
