<svg width="99" height="94" viewBox="0 0 99 94" fill="none" xmlns="http://www.w3.org/2000/svg">
<mask id="mask0_304_125" style="mask-type:luminance" maskUnits="userSpaceOnUse" x="12" y="5" width="75" height="80">
<path d="M12.4173 5.01333H86.6673V84.4747H12.4173V5.01333Z" fill="white"/>
</mask>
<g mask="url(#mask0_304_125)">
<path d="M57.7509 73.7577C57.8004 73.2671 57.8592 72.9362 57.8643 72.6062C57.9757 65.9518 57.9922 59.2944 58.2387 52.6459C58.314 50.6043 57.5869 49.4313 55.8452 48.3131C54.3045 47.3231 53.0402 47.3261 51.3974 48.175C51.9089 48.6019 52.308 49.0269 52.7937 49.3255C54.2663 50.2322 54.7159 51.4621 54.6778 53.1237C54.5489 58.6296 54.586 64.1383 54.5458 69.6462C54.5406 70.4109 54.5417 71.1658 54.5767 71.9296C54.5788 71.9678 54.5798 72.0069 54.5984 72.0402C54.6138 72.0696 54.6386 72.0931 54.6633 72.1146C55.5017 72.8608 56.6928 73.3474 57.7509 73.7577ZM56.0916 46.7777C55.9627 46.814 55.8328 46.8502 55.709 46.8982C55.8173 47.1038 56.2082 47.2742 56.4072 47.4161C56.9672 47.8186 57.5426 48.2053 58.0562 48.6607C58.3305 48.9045 58.3851 49.0318 58.7636 48.9691C59.6175 48.8291 60.4507 48.5128 61.2953 48.3121C62.2657 48.082 63.2475 47.893 64.2189 47.6619C70.029 46.2823 75.837 44.8928 81.6481 43.5151C82.5504 43.3027 83.526 43.2155 84.3943 42.9022C83.626 42.3176 82.8134 41.7908 82.01 41.2484C78.7049 39.0198 75.3997 36.7902 72.076 34.5851C71.7151 34.3462 71.1582 34.1847 70.7374 34.2503C69.5041 34.4412 68.2944 34.7643 66.9558 35.063C66.9558 35.7484 66.9672 36.3153 66.9548 36.8823C66.9105 38.8347 66.8929 40.7891 66.7991 42.7387C66.7341 44.087 66.4412 44.4121 65.0635 44.7861C64.2519 45.0064 63.4022 45.0955 62.5782 45.2806C61.4325 45.5371 60.2888 45.7995 59.1452 46.0639C58.5542 46.199 57.9633 46.3371 57.3714 46.4732C57.0765 46.5408 56.7805 46.6103 56.4845 46.6779C56.3505 46.7092 56.2205 46.7415 56.0916 46.7777ZM52.2079 50.6307C51.9192 50.2205 51.5356 49.9698 51.1602 49.6173C50.7302 49.2139 50.3084 48.8017 49.8835 48.3934C49.834 48.3454 49.7804 48.2954 49.7102 48.2807C49.6535 48.268 49.5937 48.2827 49.536 48.2964C48.942 48.4433 48.3789 48.6695 47.7993 48.8281C47.0898 49.021 46.3494 49.1414 45.6286 49.2903C44.1797 49.5909 42.7287 49.8876 41.2963 50.2518C40.1547 50.5426 39.2688 50.4075 38.3211 49.6046C36.4267 47.9978 34.3415 46.5966 32.4162 45.0201C31.4437 44.2231 30.5465 44.0204 29.2863 44.3602C25.151 45.4725 20.9806 46.4634 16.8257 47.5082C16.4359 47.6061 16.0595 47.7491 15.68 47.8715C15.7522 48.0937 15.7522 48.2367 15.8244 48.2925C19.3471 51.0126 22.8771 53.7239 26.403 56.4401C26.9227 56.8396 27.4487 56.8622 28.0963 56.7016C28.3912 56.6291 28.6872 56.5547 28.9821 56.4822C32.9205 55.5031 36.8619 54.5317 40.8033 53.5614C42.7741 53.0767 44.7448 52.592 46.7145 52.1063C48.5635 51.652 50.462 51.2692 52.276 50.7336C52.2543 50.6983 52.2317 50.664 52.2079 50.6307ZM26.0121 82.1305C26.0121 79.3703 25.9606 76.9674 26.0224 74.5675C26.1462 69.8028 26.3328 65.0402 26.4947 60.2755C26.5339 59.125 26.1885 58.1977 25.1696 57.4301C21.8521 54.9312 18.5964 52.357 15.3088 49.82C15.0994 49.6584 14.8251 49.5693 14.5178 49.4146C14.4271 49.7045 14.3415 49.8572 14.3384 50.0109C14.2012 57.0727 14.0888 64.1354 13.9238 71.1972C13.898 72.2791 14.2847 73.0625 15.1345 73.7342C17.8766 75.904 20.5908 78.1052 23.3371 80.2682C24.1126 80.8801 24.9644 81.4059 26.0121 82.1305ZM64.7335 15.0449C64.7943 15.0263 64.8542 15.0067 64.9119 14.9861C64.9325 14.9401 64.8882 14.8941 64.848 14.8618C64.0116 14.1999 63.1309 13.6085 62.2399 13.0082C58.9358 10.7845 55.6451 8.54323 52.3286 6.33912C51.7222 5.92885 51.1437 5.96704 50.4486 6.13644C44.8757 7.48769 39.2884 8.7841 33.7145 10.1265C32.6627 10.3811 31.6273 10.6905 30.5867 10.9823C30.0752 11.1263 29.5627 11.2653 29.0471 11.3916C28.681 11.4817 28.2984 11.516 27.9406 11.6354C27.7869 11.6864 27.6673 11.6893 27.7261 11.8391C27.7869 11.9977 28.3211 12.2582 28.4582 12.3483C28.8058 12.5784 29.1286 12.8516 29.4617 13.1003C32.6482 15.4855 35.843 17.86 39.0152 20.2619C39.5597 20.6731 40.0505 20.6908 40.6889 20.5449C46.1586 19.2876 51.6387 18.0695 57.1115 16.8211C58.4222 16.5225 59.7299 16.2121 61.0365 15.8997C61.7099 15.7391 62.3833 15.5776 63.0557 15.416C63.594 15.2877 64.1993 15.2094 64.7335 15.0449ZM38.5284 47.8245C38.6522 45.966 38.8223 44.4796 38.8388 42.9903C38.9162 36.2673 38.9378 29.5434 39.0152 22.8205C39.0244 22.0557 38.7996 21.5485 38.1489 21.0746C34.9788 18.7657 31.85 16.4059 28.6965 14.0755C28.4294 13.8777 28.1437 13.7015 27.8591 13.5272C27.7292 13.4479 27.1692 12.9857 27.0578 13.0072C26.9949 13.02 26.9732 13.0934 26.965 13.1541C26.9031 13.629 26.8712 14.1411 26.8722 14.619C26.8763 17.0894 26.9506 19.5598 26.9227 22.0283C26.8681 26.8546 26.799 31.6819 26.6505 36.5053C26.6082 37.8918 27.0104 38.9777 28.1313 39.8393C31.5087 42.4322 34.886 45.026 38.5284 47.8245ZM52.9876 52.0691C44.6458 53.9775 36.4453 56.1474 28.3046 58.3319C27.5528 62.0322 27.261 80.6285 27.9241 82.7073C36.2452 80.5913 44.5674 78.4753 52.9876 76.3348C52.9876 68.1892 52.9876 60.2236 52.9876 52.0691ZM85.4513 44.0909C76.5238 45.9846 67.918 47.9752 59.3071 50.2205C59.3071 50.9764 59.3112 51.5443 59.306 52.1122C59.2472 58.4337 59.172 64.7542 59.1421 71.0748C59.1359 72.192 59.3174 73.3092 59.4205 74.5302C68.1366 72.5553 76.5887 70.639 85.1007 68.7101C85.2182 60.4851 85.3327 52.4099 85.4513 44.0909ZM40.4001 48.6254C48.9739 47.2213 57.1775 45.071 65.5771 43.1166C65.2563 34.2581 66.4227 25.4613 65.6297 16.3883C57.093 18.423 48.7966 20.4009 40.4001 22.4024C40.4001 31.2197 40.4001 39.8207 40.4001 48.6254ZM29.2049 42.6564C28.053 41.7428 27.1217 40.939 26.1183 40.2281C25.0933 39.5015 24.7323 38.6017 24.8025 37.4002C25.0262 33.5551 25.2273 29.7079 25.3387 25.8578C25.4418 22.3554 25.4078 18.847 25.4501 15.3416C25.4625 14.3654 25.5233 13.3891 25.5697 12.4139C25.6254 11.2261 26.2225 10.5486 27.5023 10.2881C30.6404 9.65066 33.762 8.93783 36.8856 8.23773C41.4221 7.22233 45.9606 6.21379 50.4847 5.15042C51.4623 4.92031 52.1904 5.08775 53.002 5.64489C57.1249 8.47371 61.2592 11.2898 65.4626 14.008C66.6609 14.7825 67.126 15.6167 67.0982 16.9807C66.995 21.9235 67.0115 26.8673 66.9837 31.8112C66.9796 32.3683 66.9827 32.9264 66.9827 33.6422C68.2356 33.3945 69.2463 33.2329 70.2332 32.9862C71.12 32.7649 71.8935 32.8696 72.636 33.3837C75.9184 35.6554 79.2092 37.9182 82.4906 40.1909C83.2352 40.7069 83.9642 41.2415 84.683 41.7889C85.0502 42.0679 85.4132 42.3509 85.7762 42.6368C86.068 42.866 86.5434 43.098 86.5785 43.4632C86.6661 44.3729 86.5578 45.3432 86.5712 46.2607C86.5857 47.1988 86.6042 48.1358 86.596 49.0749C86.5774 51.0038 86.5455 52.9328 86.5331 54.8627C86.5083 58.7314 86.4753 62.6001 86.4372 66.4697C86.432 66.9525 86.4227 67.4362 86.4227 67.9199C86.4052 69.606 86.3598 69.6599 84.7274 70.0457C77.7953 71.6877 70.854 73.2936 63.9167 74.9121C62.7401 75.1863 61.55 75.4154 60.3899 75.7385C59.1967 76.0705 58.1531 75.9677 57.1569 75.2029C56.4206 74.637 55.5935 74.1787 54.5282 73.4933C54.5282 74.4783 54.5303 75.1432 54.5282 75.8061C54.5231 76.8499 54.0766 77.4932 52.9236 77.7654C51.2808 78.1541 49.6855 78.7181 48.053 79.1529C41.8727 80.794 35.6667 82.3518 29.5112 84.0761C27.5497 84.6255 26.0389 84.3552 24.5137 83.097C20.9023 80.1183 17.2269 77.2102 13.5464 74.3099C12.7245 73.6617 12.4089 72.9479 12.4326 71.9315C12.5956 64.9775 12.6956 58.0235 12.8348 51.0694C12.8534 50.1519 13.0586 49.2354 13.04 48.3209C13.0173 47.3153 13.566 46.86 14.4745 46.622C16.8082 46.0091 19.1409 45.3922 21.4767 44.7851C23.4041 44.2848 25.3387 43.8079 27.263 43.3007C27.8364 43.1489 28.3892 42.9306 29.2049 42.6564Z" fill="#231F20"/>
</g>
<path d="M53.8003 27.1102C53.7683 27.1092 53.7343 27.1063 53.6992 27.1024C53.5786 27.0896 53.4579 27.0642 53.3589 26.9995C53.1929 26.8909 53.1228 26.695 53.0207 26.5295C52.5216 25.7198 51.6099 25.8226 51.0005 26.4228C50.5911 26.8272 50.2332 27.3276 50.0115 27.8465C48.9906 30.2279 48.6018 32.7071 48.906 35.2715C48.9256 35.4429 48.9596 35.6133 48.9998 35.7817C49.7104 38.7789 52.2885 39.7659 55.0265 38.068C55.5802 37.7244 56.0278 37.2142 56.6032 36.9146C57.2529 36.5768 58.2419 37.1427 57.8913 37.88C56.7126 40.3613 52.733 41.785 50.0837 40.7226C49.0236 40.2976 48.2656 39.5642 47.8356 38.5792C47.5117 37.8428 47.2395 37.0624 47.1106 36.2771C46.5877 33.088 46.9961 29.9752 48.2109 26.9711C48.7224 25.71 49.5557 24.6466 50.9293 24.0993C52.4442 23.4951 54.0829 24.2638 54.5222 25.7531C54.7068 26.3827 54.6129 27.1396 53.8003 27.1102Z" fill="#231F20"/>
<path d="M76.3104 57.7278C80.6881 59.0349 81.2707 63.9993 77.7789 66.7253C76.4321 67.776 74.8801 68.4261 73.1589 68.5613C72.5639 68.6092 71.9503 68.525 71.3718 68.3958C71.2006 68.3595 71.0284 68.3145 70.8737 68.2342C70.5808 68.0795 70.4395 67.8112 70.455 67.4959C70.4612 67.3471 70.5066 67.2022 70.5602 67.0621C70.6695 66.7811 70.9067 66.6029 71.2212 66.5432C71.7441 66.4433 72.302 66.5236 72.8465 66.5128C74.6058 66.4766 76.1753 65.9547 77.4685 64.7993C78.6483 63.7438 78.9174 62.4317 78.4616 61.004C77.9357 59.3581 76.4362 58.8391 74.8832 59.7321C74.3676 60.0298 73.9107 60.4156 73.4106 60.7387C72.8795 61.0814 72.2844 61.3389 71.8297 60.6956C71.444 60.1492 71.8307 59.7204 72.2834 59.3796C72.7103 59.0594 73.1878 58.7931 73.5817 58.4406C74.8306 57.3234 74.9492 55.8879 73.9592 54.377C73.1373 53.1198 71.7606 52.7497 70.1446 53.3734C69.7537 53.5242 69.3897 53.7376 69.0216 53.9354C68.2089 54.3731 67.9222 54.9606 67.981 55.9153C68.2203 59.7556 68.3378 63.6028 68.4822 67.4479C68.5008 67.961 68.4781 68.4888 68.3636 68.9852C68.3141 69.2016 67.9924 69.4866 67.7717 69.5052C67.5469 69.5238 67.1602 69.3015 67.0838 69.1018C66.9003 68.6259 66.7807 68.102 66.7714 67.5968C66.6889 63.3462 66.6507 59.0947 66.5651 54.8441C66.5466 53.9452 66.8281 53.3 67.7212 52.9083C68.5926 52.5264 69.3938 51.9399 70.3013 51.7078C73.8633 50.7943 76.4228 52.7242 76.4383 56.2512C76.4404 56.7065 76.361 57.1628 76.3104 57.7278Z" fill="#231F20"/>
<path d="M38.7307 60.9786C38.5987 60.9923 38.4656 61.007 38.3336 61.0207C37.586 63.3374 36.8383 65.6531 35.9865 68.2969C38.0521 67.6839 39.7268 67.1865 41.5748 66.6372C40.5652 64.6299 39.6485 62.8038 38.7307 60.9786ZM42.2771 68.105C40.9612 68.5945 39.9052 69.0264 38.8214 69.3789C37.7386 69.7304 36.6269 70.0016 35.3121 70.3688C34.6737 72.6317 34.0044 75.0061 33.3331 77.3806C33.2279 77.7488 33.2238 78.4019 32.8319 78.6251C32.4988 78.817 31.9244 78.7035 31.746 78.3696C31.6099 78.1179 31.7151 77.7233 31.7924 77.4638C33.4393 71.9472 35.1151 66.4394 36.8032 60.9345C36.9713 60.3891 37.2157 59.8467 37.5292 59.3639C38.1253 58.4367 38.8482 58.4181 39.5062 59.2827C39.7877 59.6518 40.0125 60.066 40.2218 60.4782C42.4834 64.9188 44.7449 69.3593 46.9807 73.8106C47.2467 74.3393 47.816 75.0522 46.9827 75.4703C46.1299 75.8962 45.8617 75.0394 45.5761 74.5195C44.7686 73.0439 44.0127 71.5438 43.2434 70.0496C42.9299 69.4405 42.6329 68.8227 42.2771 68.105Z" fill="#231F20"/>
<path d="M29.2844 28.9158C29.2215 25.2282 29.0895 21.5456 29.3587 17.8708C30.2208 19.0967 30.163 23.6312 29.2844 28.9158Z" fill="#231F20"/>
<path d="M28.4904 36.7364C28.578 35.908 28.6646 35.0796 28.7523 34.2522C28.8998 34.264 29.0452 34.2767 29.1926 34.2885C29.1349 35.1031 29.0771 35.9158 29.0194 36.7305C28.8441 36.7315 28.6677 36.7344 28.4904 36.7364Z" fill="#231F20"/>
<path d="M16.4206 63.4118C16.2185 60.3 15.7585 57.1354 16.2587 53.8385C17.2549 54.2233 17.1105 54.8441 17.0713 55.364C16.8723 58.0479 16.6403 60.7299 16.4206 63.4118Z" fill="#231F20"/>
<path d="M15.7771 70.267C15.7771 69.4983 15.7771 68.7297 15.7771 67.7299C16.8743 68.6367 16.2205 69.466 16.3371 70.2239C16.1504 70.2376 15.9638 70.2523 15.7771 70.267Z" fill="#231F20"/>
</svg>
