<svg width="96" height="95" viewBox="0 0 96 95" fill="none" xmlns="http://www.w3.org/2000/svg">
<path d="M60.893 36.7789C60.937 31.8408 52.528 25.7272 46.116 29.1808C41.271 31.9903 38.963 39.4606 40.359 44.5896C41.786 51.2476 46.262 54.2955 46.31 61.4452C46.353 63.7302 46.195 66.2843 46.338 67.2739C54.331 61.4412 59.934 60.1795 70.693 52.6755C85.865 41.8435 77.137 21.8282 62.249 31.7349C61.944 31.2194 61.807 30.8077 61.21 30.2862C65.305 27.1492 69.925 26.315 73.599 27.4768C88.758 34.7284 82.343 50.6785 66.49 58.4319C60.691 61.3571 52.205 65.0067 47.285 69.3104C46.613 68.8869 45.677 68.2971 44.505 67.543C44.654 65.1967 45.263 62.8089 44.723 60.5219C43.612 53.4939 38.561 48.0304 38.326 40.7134C38.318 35.1401 41.167 28.8731 47.287 26.6139C52.606 24.796 61.51 28.9404 63.198 35.1332C62.287 35.6072 61.355 36.4592 60.893 36.7779V36.7789Z" fill="#333333"/>
<path d="M39.708 42.7272C33.393 33.2985 24.821 44.4679 25.218 52.5043C23.78 53.9362 23.544 54.248 21.834 55.5928C20.201 53.1525 14.472 50.8339 11.93 52.5944C8.982 54.5914 9.273 58.8703 10.447 62.2547C12.401 68.3634 18.064 71.919 23.311 73.7635C26.911 75.3696 32.355 77.047 35.917 78.7679C36.405 74.767 43.235 55.9807 43.118 57.1504C43.001 58.3221 41.062 65.9735 41.976 67.4272C40.048 69.9992 38.455 77.5269 38.153 80.7955C37.005 81.2646 37.023 81.0696 36.423 81.9702C33.259 79.9613 26.408 77.3458 22.974 76.0554C17.638 73.911 13.034 72.6344 9.128 67.644C6.156 63.9776 4.616 58.1697 6.908 53.8036C8.848 50.3658 12.901 50.1392 16.21 50.4549C17.83 50.4143 20.954 51.6859 22.357 51.874C22.445 49.8384 22.432 48.6855 23.434 44.6282C24.472 41.4269 25.901 39.3478 29.142 37.6576C34.235 35.9051 39.842 36.0931 44.901 45.4456C49.961 54.7982 40.313 41.4477 39.708 42.7272Z" fill="#333333"/>
</svg>
