<svg width="85" height="97" viewBox="0 0 85 97" fill="none" xmlns="http://www.w3.org/2000/svg">
<path d="M27.9075 27.8269C27.0584 28.0694 26.7874 29.29 27.4355 29.9599C28.7061 31.3057 30.4725 31.8948 32.2318 31.6089C33.9885 31.328 35.561 30.2064 36.4951 28.5261C36.8245 27.9471 36.6766 27.1752 36.1631 26.8023C35.6496 26.4305 34.974 26.6033 34.6455 27.1873C34.0735 28.2118 33.0659 28.9565 31.9255 29.1404C30.7851 29.3243 29.6748 28.9333 28.9275 28.1371C28.6548 27.8451 28.2687 27.7248 27.9075 27.8269Z" fill="black"/>
<path d="M21.7459 29.7063C22.5897 29.4193 23.3679 30.3307 23.0961 31.2825C22.5897 33.1669 21.3085 34.6846 19.6607 35.4414C18.0147 36.1921 16.1713 36.1163 14.6253 35.1948C14.0773 34.8786 13.8603 34.1228 14.1428 33.5054C14.4235 32.8921 15.0866 32.6516 15.6285 32.977C16.5732 33.5448 17.7774 33.6135 18.8426 33.1255C19.9122 32.6395 20.7055 31.6665 21.0065 30.5479C21.1137 30.1417 21.3899 29.8265 21.7459 29.7063Z" fill="black"/>
<mask id="mask0_304_73" style="mask-type:luminance" maskUnits="userSpaceOnUse" x="4" y="11" width="77" height="77">
<path d="M4.30664 11.1328H80.4666V87.4293H4.30664V11.1328Z" fill="white"/>
</mask>
<g mask="url(#mask0_304_73)">
<path d="M42.6647 36.1567C42.9746 36.1295 43.3119 36.1628 45.5361 37.3763C47.7629 38.5969 52.1803 41.4544 59.4159 43.6449C66.6471 45.8658 71.732 45.9002 76.3034 46.2154C77.7042 46.6499 78.4125 47.9675 78.1566 49.0618C75.2339 61.4636 71.1902 71.3172 66.3699 77.4626C61.5497 83.61 56.1363 86.0895 49.856 84.1758C43.5776 82.2641 39.9819 77.0443 38.5121 68.9852C37.0396 60.9261 37.8852 50.0884 40.8053 37.6865C40.9983 36.8671 41.7217 36.2426 42.6647 36.1567ZM36.7351 11.3894C36.4641 11.4116 36.1958 11.4672 35.9311 11.5491C35.8594 11.5723 35.7903 11.6006 35.7257 11.6349C32.0592 13.7103 28.4095 16.0868 22.2789 17.9531C16.1518 19.8213 11.9452 19.8436 7.8625 20.1295C7.78724 20.1295 7.71641 20.1416 7.64558 20.1588C5.51615 20.8116 4.04193 23.1375 4.59354 25.4989C7.17896 36.4669 10.7339 45.3172 15.254 51.0806C19.7731 56.843 25.4407 59.4832 31.6191 57.5988C33.1544 57.2613 32.5382 54.615 31.056 55.194C25.6629 56.8369 21.0384 54.7232 16.8867 49.4245C12.7323 44.1259 9.23401 35.595 6.70261 24.8562C6.50162 24.0035 7.05854 22.9385 8.20427 22.5818C12.1568 22.314 16.5706 22.2787 22.8411 20.3488C29.1231 18.4522 32.9605 15.9727 36.5004 13.9609C37.655 13.6123 38.6086 14.2176 38.806 15.0724C40.4458 22.0372 41.3251 28.425 41.3915 33.953C40.1058 34.435 39.0566 35.506 38.6954 37.053C35.7124 49.6822 34.7969 60.819 36.3791 69.4924C37.9614 78.1648 42.2353 84.4365 49.3009 86.5897C56.3647 88.7449 62.8185 85.7419 68 79.1318C73.1885 72.5226 77.2898 62.3488 80.2728 49.7165C80.8864 47.1107 79.2448 44.521 76.8648 43.7945C76.7931 43.7723 76.724 43.7601 76.6479 43.7531C71.9472 43.4206 67.0659 43.4045 59.987 41.227C52.9019 39.091 48.6643 36.3346 44.4462 33.9449C44.1752 33.7914 43.8432 33.7227 43.5776 33.7227C43.4864 27.9653 42.5717 21.4714 40.9142 14.4298C40.4255 12.3624 38.6059 11.2086 36.7351 11.3894Z" fill="black"/>
</g>
<path d="M27.0282 39.1243C23.7504 40.1267 21.5413 43.6833 21.6068 47.6977C21.59 48.403 22.0965 48.981 22.7136 48.9688C23.3316 48.9587 23.8186 48.3616 23.7885 47.6573C23.7433 44.6897 25.3203 42.2162 27.5905 41.5271C29.8563 40.836 32.3142 42.0839 33.5803 44.6796C33.8513 45.3263 34.5507 45.5779 35.0979 45.2293C35.6478 44.8787 35.831 44.0724 35.4875 43.4681C33.7769 39.9549 30.306 38.1281 27.0282 39.1243Z" fill="black"/>
<path d="M59.2706 59.9288C58.4862 59.6126 58.2869 58.4566 58.905 57.8251C60.3305 56.3196 62.3191 55.6608 64.3016 55.9821C66.2814 56.3024 68.0496 57.5695 69.0988 59.4529C69.4397 60.0309 69.2945 60.821 68.7729 61.1939C68.255 61.5738 67.567 61.3899 67.2509 60.7887C66.5621 59.5509 65.3526 58.6688 63.9917 58.4516C62.6299 58.2344 61.2947 58.6981 60.3916 59.656C60.095 59.9804 59.662 60.0844 59.2706 59.9288Z" fill="black"/>
<path d="M52.3813 57.8322C53.2012 58.006 53.8829 57.1168 53.6262 56.2176C53.0533 54.1038 51.6189 52.4022 49.7657 51.5545C47.9072 50.7068 45.823 50.7987 44.0814 51.8364C43.5333 52.1436 43.3128 52.9074 43.5997 53.5309C43.8813 54.1503 44.5586 54.3786 45.0969 54.0401C46.2365 53.3662 47.6726 53.2843 48.9476 53.8683C50.2217 54.4534 51.1718 55.6164 51.533 56.9633C51.649 57.4078 51.9802 57.7463 52.3813 57.8322Z" fill="black"/>
<path d="M46.5915 64.3726C47.3299 64.8374 47.8975 65.376 48.7864 65.7882C50.474 66.5774 52.2759 67.2483 53.5872 67.6444C54.9029 68.0445 56.7596 68.4921 58.5676 68.7679C59.5115 68.9114 60.2393 68.773 61.0831 68.7902C60.3199 70.5372 59.3716 72.5065 57.7088 74.0939C55.5687 76.1288 53.1188 77.2666 51.4374 76.7583C49.7542 76.243 48.1383 73.8655 47.1838 70.8868C46.4365 68.5669 46.4861 66.3207 46.5915 64.3726ZM45.3519 60.9655C44.864 60.9706 44.4373 61.3434 44.3071 61.882C43.6537 64.6424 44.0459 68.3608 45.1306 71.7456C46.2205 75.1366 48.0489 78.2982 50.876 79.1571C53.7085 80.023 56.6799 78.3214 59.1104 76.0076C61.5409 73.6937 63.5038 70.6978 64.1564 67.9424C64.3769 67.0078 63.6349 66.155 62.815 66.4076C62.2368 66.5854 60.5616 66.5632 58.8589 66.2985C57.1598 66.0408 55.358 65.5993 54.1583 65.2386C52.9532 64.8718 51.1965 64.2241 49.609 63.4794C48.0223 62.7408 46.5561 61.8112 46.1337 61.3313C45.9292 61.0918 45.6485 60.9655 45.3519 60.9655Z" fill="black"/>
<path d="M62.8814 17.558C64.1918 20.8277 66.377 23.3194 69.2431 24.8148C66.3708 26.3042 64.1927 28.8019 62.8814 32.0777C61.5754 28.8019 59.3911 26.3042 56.5188 24.8148C59.3911 23.3194 61.5745 20.8277 62.8814 17.558ZM62.8903 13.9023C62.3927 13.8973 61.9561 14.2802 61.826 14.8238C60.8202 19.1151 57.8788 22.4595 54.1229 23.6114C53.0382 23.9378 53.0382 25.6969 54.1229 26.0233C57.8788 27.1752 60.8202 30.5136 61.826 34.8028C62.1279 36.0224 63.6376 36.0224 63.9359 34.8028C64.9453 30.5126 67.8831 27.1741 71.6426 26.0233C72.7272 25.6959 72.7272 23.9378 71.6426 23.6114C67.8831 22.4595 64.9453 19.1151 63.9359 14.8238C63.8102 14.2863 63.3826 13.9074 62.8903 13.9023Z" fill="black"/>
<path d="M21.5015 67.6908C22.7251 70.6978 24.7377 72.9885 27.3744 74.3919C24.7385 75.7954 22.7251 78.087 21.5015 81.1021C20.2663 78.0941 18.2608 75.7964 15.6241 74.3919C18.2608 72.9885 20.2663 70.6978 21.5015 67.6908ZM21.5085 64.0362C21.0136 64.0311 20.5709 64.409 20.4443 64.9587C19.5004 68.9801 16.7494 72.1195 13.229 73.1956C12.1594 73.5331 12.1594 75.2578 13.229 75.5963C16.7494 76.6734 19.5013 79.8118 20.4443 83.8272C20.7311 85.065 22.2727 85.065 22.5586 83.8272C23.5025 79.8118 26.2491 76.6734 29.7739 75.5963C30.8382 75.2578 30.8382 73.5331 29.7739 73.1956C26.2491 72.1185 23.5016 68.9801 22.5586 64.9587C22.4294 64.4201 22.0026 64.0412 21.5085 64.0362Z" fill="black"/>
</svg>
