<svg width="99" height="79" viewBox="0 0 99 79" fill="none" xmlns="http://www.w3.org/2000/svg">
<path d="M81.4543 32.0148C81.1109 34.8653 80.8892 37.6122 80.4231 40.3311C79.8322 43.7825 80.356 47.1786 80.7479 50.602C81.2109 54.6474 82.4134 58.6328 82.2989 62.7227C82.2865 63.1802 82.3103 63.6452 82.2216 64.0945C81.9235 65.5897 80.6046 66.541 78.7184 66.6497C77.4036 66.7262 76.1475 66.5254 74.943 66.1C73.888 65.7272 72.7908 65.4655 71.6492 65.3248C70.1621 65.1413 68.8122 65.4392 67.5263 66.0333C66.1 66.69 64.713 67.4347 63.0383 67.6479C62.1297 67.7631 61.9957 68.3482 61.7863 68.8913C61.1531 70.5347 60.5663 72.1912 59.4753 73.6938C59.1886 74.0913 58.9298 74.5069 58.5863 74.8698C57.3354 76.198 55.8319 76.1124 54.9429 74.5859C54.0323 73.0207 53.6415 71.3164 53.2465 69.6253C53.0238 68.6683 52.8474 67.7038 52.5968 66.7509C52.2184 65.3174 51.3965 64.8499 49.5495 65.0647C48.7039 65.1627 47.884 65.4046 47.0518 65.5741C46.4279 65.7017 45.7854 65.9559 45.178 65.914C43.3373 65.7881 42.6422 66.634 42.1936 67.8503C41.6883 69.2229 41.0912 70.575 40.5395 71.9361C40.2734 72.5936 39.9496 73.2322 39.4443 73.7959C38.4646 74.8871 37.4519 74.9381 36.5764 73.8189C35.1594 72.0134 33.9333 70.1051 33.8621 67.9186C33.8281 66.8365 33.2599 66.3937 32.0739 65.9115C28.9575 64.6475 25.8359 64.8541 22.6287 65.4334C21.5799 65.6235 20.5281 65.8531 19.4628 65.9189C17.4962 66.0415 16.5031 65.2252 16.6495 63.6411C16.8238 61.7821 17.7488 60.0935 18.6955 58.4197C20.5951 55.063 23.3217 52.089 25.607 48.9125C28.3965 45.0349 31.085 41.0932 32.4617 36.7185C33.6157 33.0557 34.5005 29.337 35.5637 25.6552C37.0167 20.6215 38.7059 15.6436 41.7728 11.0518C44.0364 7.66382 47.1426 5.02884 51.9059 3.77719C55.8845 2.73373 59.4 3.92202 61.3315 6.51585C63.6859 9.67668 64.9863 13.1173 65.8845 16.6575C66.7786 20.1903 67.3757 23.7708 68.146 27.3241C68.377 28.3914 68.5895 29.4744 69.3093 30.4364C70.4045 31.8987 71.3151 32.0263 72.8506 30.8808C73.6374 30.294 74.3738 29.6661 75.1523 29.072C76.3053 28.1915 77.6315 27.6195 79.2413 28.1306C80.7685 28.6161 81.1295 29.7748 81.3852 30.9244C81.4718 31.3153 81.4409 31.7234 81.4574 32.0073L81.4543 32.0148ZM80.057 61.899C80.7758 60.8465 81.4997 59.9314 81.1779 58.7538C80.3674 55.7814 80.1446 52.7424 79.662 49.7321C79.2969 47.4625 78.9339 45.1765 79.201 42.8789C79.5403 39.9724 79.9487 37.0708 80.2983 34.165C80.4633 32.7982 80.6922 31.4132 80.2003 30.0636C79.5816 28.361 77.8748 28.022 76.3043 29.2835C75.3442 30.0537 74.4408 30.8693 73.5323 31.6782C72.0503 32.9965 70.1941 32.957 68.9607 31.563C68.2502 30.7573 67.6964 29.8875 67.4768 28.914C67.0178 26.8855 66.5198 24.8587 66.1743 22.817C65.5617 19.1781 64.8326 15.5622 63.4322 12.0541C62.601 9.9721 61.6254 7.93868 59.9785 6.16365C58.2254 4.27588 55.7937 3.56899 52.9526 4.14832C50.0992 4.72848 47.6345 5.86246 45.671 7.63091C43.6487 9.45202 41.9925 11.5011 41.0489 13.7929C39.1916 18.3082 37.3777 22.8516 36.1824 27.5101C34.1725 35.3434 31.8502 43.041 26.0081 49.7684C23.6404 52.4947 21.5016 55.3584 19.7082 58.3687C18.8719 59.7717 18.1964 61.2242 17.7612 62.7334C17.5962 63.302 17.2425 64.0896 18.151 64.4327C18.9008 64.715 19.4525 64.1291 19.9568 63.7291C20.7199 63.1226 21.4479 62.4865 22.2234 61.8916C25.0522 59.7182 31.0994 59.8606 32.9206 63.4831C33.1062 63.8526 33.3651 64.2015 33.6249 64.543C33.7734 64.7397 34.1488 64.9981 34.3035 64.8598C35.2677 63.9958 35.2244 64.7693 35.4348 65.2507C35.6452 65.7329 36.2227 65.8893 36.761 66.0522C39.6763 66.9253 42.4968 65.6465 43.4332 63.6789C44.9223 60.551 45.8803 57.331 46.7765 54.0887C47.4891 51.5055 48.0862 48.9018 48.7338 46.3088C48.5987 52.5638 46.7414 58.5439 44.2747 64.4706C45.0997 64.2056 45.7566 63.8723 46.3949 63.5226C47.3406 63.0025 48.245 62.4322 49.2195 61.9483C51.5738 60.7798 52.9021 60.8489 55.0801 62.2709C55.8546 62.7762 56.5321 63.3786 57.2375 63.9497C57.9934 64.5619 58.7101 65.2046 59.4825 65.8012C59.8115 66.0547 60.1394 66.4513 60.8726 66.1288C60.4096 64.4994 59.8331 62.8601 59.499 61.1896C59.1618 59.4969 58.9112 57.7737 58.9133 56.0653C58.9153 54.4145 58.211 52.7736 58.7214 50.741C59.5877 52.7432 59.5753 54.4721 59.8208 56.1624C60.2343 59.0072 60.5839 61.8603 61.3171 64.6664C61.9389 67.0422 62.8392 67.3393 65.4617 66.1938C65.7773 66.0563 66.1042 65.9346 66.4032 65.7782C69.035 64.3998 71.8018 64.3718 74.6274 65.3034C75.703 65.6564 76.8096 65.8835 77.9439 66.0127C79.3877 66.1765 80.7716 65.5223 81.1491 64.4533C81.4688 63.5464 81.4615 62.6075 81.2213 61.6496C80.7665 61.7731 80.652 62.0775 80.0518 61.9047L80.057 61.899ZM54.9883 65.751C55.5534 67.1796 55.507 67.1755 55.3204 68.4905C55.0636 70.2927 54.6686 72.1072 55.5772 73.8839C55.8257 74.3719 56.0288 74.9019 56.8074 74.934C57.4674 74.9611 57.7892 74.5135 58.1058 74.1357C59.5227 72.4414 60.2559 70.5231 60.9201 68.586C61.1263 67.9836 60.95 67.4372 60.2271 67.0957C58.6451 66.3485 57.5489 65.2104 56.4032 64.1085C55.6555 63.3901 55.6267 63.409 54.2138 63.6435C53.6786 63.7324 53.6714 63.7308 53.5838 64.0336C53.0939 65.7379 54.119 67.2726 54.3479 69.2633C54.7068 67.9548 54.3118 66.9566 54.9893 65.7519L54.9883 65.751ZM34.9903 66.8282C35.4038 67.8009 35.6163 68.6469 35.5307 69.5546C35.4771 70.1397 35.7503 70.8375 36.1659 71.3312C36.598 71.8439 37.0982 72.2537 37.1044 72.9368C37.1075 73.3334 37.4282 73.7481 37.9985 73.7786C38.5791 73.8099 38.8431 73.3885 39.0411 73.0297C40.0249 71.2555 40.69 69.3924 41.4047 67.5433C41.5862 67.0743 41.3449 66.6744 40.6869 66.7813C38.8596 67.0801 37.0281 66.9467 34.9924 66.8282H34.9903ZM31.6563 63.7637C31.9553 63.6584 31.9265 63.4814 31.8213 63.3251C30.1269 60.7765 24.9181 60.3601 22.6029 62.591C22.3998 62.7869 22.0079 63.13 22.5411 63.2699C23.2485 63.4559 23.1619 63.5827 22.6793 63.883C22.3307 64.0986 21.714 64.1044 21.68 64.6763C22.9206 64.4763 24.0941 64.2344 25.2863 64.1118C26.4237 63.9941 27.5694 64.0591 28.6976 64.2879C29.7959 64.5109 30.9055 64.6952 32.01 64.8952C31.1468 64.3068 29.9692 64.227 29.2298 63.409C30.2548 63.2066 30.9097 63.7036 31.6553 63.7653L31.6563 63.7637ZM45.738 64.9528C47.0518 63.9711 48.6389 64.3257 50.1157 64.2813C51.908 64.2262 52.0369 64.0887 51.6099 62.7301C51.3944 62.0413 50.9788 61.8776 50.2353 62.1919C48.5554 62.9013 47.1261 63.8715 45.738 64.9512V64.9528Z" fill="black"/>
<path d="M50.5777 16.957C50.8087 17.6795 51.1582 18.5255 49.5299 18.5757C49.4804 19.5212 48.4811 19.9401 47.8768 20.5943C46.8218 21.7415 45.4142 21.2197 44.1571 21.3818C43.9044 21.4156 43.5311 21.079 43.6703 20.926C44.3035 20.2298 43.6301 19.4751 43.9096 18.7609C44.0406 18.4284 45.0326 17.891 43.725 17.64C43.5414 17.6055 43.7033 17.3216 43.856 17.2072C44.6315 16.618 45.3245 15.8996 46.2351 15.5079C46.8961 15.224 47.6417 15.0067 48.3398 14.7253C49.8774 14.1089 50.852 14.652 50.7891 16.0436C50.7757 16.3258 50.6612 16.6048 50.5777 16.9554V16.957Z" fill="black"/>
<path d="M56.1887 17.4351C55.7484 16.4575 56.3104 15.5408 57.023 14.6545C57.1777 14.4619 57.5479 14.1928 57.6727 14.3278C58.2584 14.9532 59.1639 14.8866 59.9311 15.112C60.9417 15.4108 60.787 16.1851 61.0479 16.8163C61.544 18.0186 62.0658 19.1781 61.6884 20.4882C61.2594 21.9768 59.6104 22.5924 58.1574 21.6353C56.5878 20.6017 55.8401 19.2242 56.1887 17.436V17.4351ZM57.8356 18.3659C58.6575 18.4095 59.169 18.0803 59.599 17.394C59.9858 16.7793 59.5196 16.4386 59.069 16.0856C58.8029 15.8757 58.4399 15.7868 58.1202 16.0074C57.7253 16.2789 57.7304 16.6287 58.1409 16.8657C59.2907 17.5331 59.1804 17.8054 57.7593 17.7536C57.5077 17.7429 57.3829 17.891 57.4076 18.0819C57.4334 18.2745 57.6036 18.3584 57.8377 18.3659H57.8356Z" fill="black"/>
<path d="M39.1122 46.5886C39.2535 52.2453 36.895 57.1672 35.6709 62.2512C35.4626 61.3805 38.4811 47.7654 39.1122 46.5886Z" fill="black"/>
<path d="M39.4082 22.1743C39.9228 22.5331 39.9083 22.7084 39.8434 22.8705C38.4966 26.2107 38.1975 29.7106 37.3993 33.1339C37.1332 34.2745 36.8703 35.4348 35.87 36.3861C37.1054 31.7062 37.5561 26.902 39.4082 22.1727V22.1743Z" fill="black"/>
<path d="M33.0443 42.9118C32.2719 45.3822 27.5045 52.512 25.0191 55.2152C25.0305 53.7496 26.2958 52.9777 26.928 51.9894C27.5766 50.9739 28.3026 49.9938 28.8647 48.9413C29.4525 47.8411 30.0888 46.7532 30.7601 45.6834C31.3861 44.6852 31.9708 43.6574 33.0443 42.9118Z" fill="black"/>
<path d="M77.0767 29.8423C76.0774 31.4412 75.2214 33.073 73.0857 34.0416C71.6327 34.7008 70.4705 34.6958 69.1463 33.9025C67.352 32.827 66.958 32.2378 67.3283 30.6462C67.9522 30.7935 67.8758 31.2618 68.0305 31.6165C68.9483 33.7429 71.0903 34.3082 73.4178 33.05C74.3377 32.5529 74.9688 31.8757 75.5133 31.1252C75.8938 30.5993 76.2372 30.0365 77.0787 29.8423H77.0767Z" fill="black"/>
<path d="M31.3232 59.952C31.9708 57.1162 32.1172 54.1899 33.8075 51.5623C33.2073 54.4047 32.6308 57.2478 31.3232 59.952Z" fill="black"/>
<path d="M49.2628 52.9415C49.1123 51.0085 50.0889 46.4899 50.8468 45.2086C51.349 46.4619 50.5292 50.7855 49.2628 52.9415Z" fill="black"/>
<path d="M78.8432 63.6526C77.9563 63.5168 77.2984 63.4296 76.5847 63.4749C75.043 63.5728 74.3449 63.1251 74.0582 61.9121C73.853 61.0407 73.8117 60.1445 73.6488 58.8772C74.7563 59.8096 74.612 60.6975 74.8801 61.4447C75.3627 62.7927 75.3792 62.8634 77.153 62.8099C77.8491 62.7877 78.4224 62.8461 78.8421 63.6526H78.8432Z" fill="black"/>
<path d="M63.6931 60.8563C63.0908 58.753 62.3504 56.6833 63.2177 54.4014C63.6302 55.2424 64.0736 59.9602 63.6931 60.8563Z" fill="black"/>
</svg>
