<svg width="91" height="101" viewBox="0 0 91 101" fill="none" xmlns="http://www.w3.org/2000/svg">
<mask id="mask0_304_29" style="mask-type:luminance" maskUnits="userSpaceOnUse" x="5" y="13" width="81" height="75">
<path d="M5.74817 13.1973H85.2822V87.5333H5.74817V13.1973Z" fill="white"/>
</mask>
<g mask="url(#mask0_304_29)">
<path d="M82.8697 60.7936C82.6318 60.2907 82.3323 59.8215 82.0204 59.3575C81.8128 59.0513 81.4753 58.8935 81.1493 59.106C80.8753 59.2817 80.7123 59.7625 80.9208 60.0708C81.3986 60.7746 81.8678 61.4743 82.045 62.3465C82.0962 62.6 82.2327 62.7463 82.3967 62.8125C82.3806 62.8788 82.3654 62.9461 82.3465 63.0135C81.9559 62.1865 81.3407 61.4827 80.6033 60.9861C79.8999 60.5116 79.2629 61.732 79.9615 62.2044C80.9748 62.8883 81.6194 64.0214 81.5114 65.3575C81.5038 65.4722 81.5161 65.5711 81.5445 65.6574C81.3009 66.3686 81.0431 67.0714 80.7606 67.7552C80.8374 64.5432 79.3653 61.3396 76.695 59.8372C78.825 58.3854 81.2782 57.6142 83.5352 56.4138C83.519 56.5989 83.4963 56.7852 83.4754 56.9724C83.0242 57.0955 82.7636 57.549 82.7133 58.0613C82.2242 58.0319 81.7663 58.7536 82.2081 59.2712C82.5143 59.631 82.683 60.135 82.9152 60.559C82.9001 60.6368 82.8858 60.7147 82.8697 60.7936ZM77.1794 72.9841C74.8181 74.9641 71.1013 74.6579 68.3002 74.8442C65.2707 75.0472 62.6232 75.9257 60.2193 77.9068C59.3661 76.5664 58.6533 75.124 57.8428 73.7489C57.4608 73.0998 56.457 73.5007 56.6807 74.2939C56.9973 75.4218 57.3926 76.5854 57.4874 77.7711C57.5632 78.7242 57.0523 79.3681 56.4835 80.0046C54.3289 82.4118 51.5913 83.6543 48.6376 84.3424C45.9209 84.9736 43.17 86.1425 40.3595 85.6806C38.275 85.3376 37.5299 83.4334 36.4664 81.6511C36.2521 81.2903 35.7535 81.1525 35.4673 81.5091C34.4435 82.7779 34.1203 84.3855 33.8681 86.0131C25.4544 84.6327 17.2483 82.2887 8.76255 84.2466C8.25731 75.6059 9.12465 66.962 9.31992 58.3222C9.41566 54.1181 9.18626 50.0476 8.56822 45.8992C7.99473 42.0518 7.21839 38.2106 7.06198 34.3063C7.24114 34.339 7.4203 34.28 7.55585 34.158C7.77576 34.1306 7.97103 33.9791 8.02696 33.6572C7.98431 33.9034 8.10564 33.6519 8.36442 33.4836C8.68482 33.2753 9.02512 33.1017 9.36258 32.9281C10.4167 32.3852 11.5096 31.9286 12.5997 31.4794C14.4055 30.7324 16.2492 29.9802 18.1251 29.4636C19.6437 31.4352 21.7215 32.6062 23.5064 34.2516C23.9491 34.6598 24.8022 34.2937 24.5681 33.5667C24.1851 32.36 24.1065 31.1522 24.2496 29.9118C28.7323 29.6761 35.1961 29.7193 37.2076 24.5861C38.8172 26.4389 40.0068 28.6577 40.9671 31.0038C41.2581 31.7182 42.0913 31.2606 42.152 30.6482C42.3046 29.0933 42.133 27.5919 41.9112 26.057C41.6515 24.2558 41.6685 22.8344 42.9833 21.553C45.3066 19.2921 48.8708 19.2363 51.7875 19.0143C54.9583 18.7734 58.1708 18.5693 61.3255 18.1432C64.2564 17.7486 66.9902 16.7713 69.4216 14.927C69.9847 15.7497 70.1591 16.8859 70.3127 17.8759C70.5895 19.635 70.6113 21.453 70.6587 23.2342C70.7506 26.7524 71.0975 30.1359 71.6255 33.6151C72.272 37.8792 73.6038 41.6899 76.2277 44.9355C78.77 48.0834 82.1768 50.7483 83.7541 54.7062C80.9142 56.4232 77.6401 57.1849 75.0409 59.388C74.6172 59.7468 74.6219 60.4843 75.1944 60.6768C79.825 62.2286 81.0924 69.7079 77.1794 72.9841ZM85.1381 54.7294C83.7494 50.8546 80.827 48.1412 78.2467 45.248C76.6988 43.5131 75.3764 41.6888 74.4333 39.471C73.5441 37.3816 73.128 35.0575 72.7848 32.7945C72.2246 29.1059 72.017 25.5341 71.8872 21.8086C71.8018 19.2763 71.8824 15.3215 69.96 13.5003C69.7581 13.3089 69.4292 13.1952 69.1884 13.3909C66.285 15.7423 63.0317 16.605 59.4998 16.9396C56.1366 17.2594 52.7629 17.4614 49.4007 17.8065C46.5114 18.1032 43.3065 18.7807 41.35 21.3825C40.5301 22.4725 40.4087 23.857 40.5301 25.2163C40.6012 26.0149 40.7092 26.7945 40.7964 27.5719C39.8675 25.816 38.7575 24.1895 37.3849 22.8123C37.0389 22.4651 36.4483 22.5893 36.3213 23.1237C34.9724 28.7755 27.8185 28.2758 23.7017 28.5325C23.4382 28.5493 23.1386 28.7334 23.0875 29.0491C22.9273 30.0559 22.8704 31.0533 22.9614 32.0391C21.4807 30.8692 19.9527 29.7834 18.8076 28.1748C18.6683 27.977 18.3915 27.9412 18.1877 27.9938C15.8966 28.5777 13.6528 29.5267 11.4594 30.4526C10.3494 30.9228 9.24124 31.4173 8.17199 32.0002C7.81463 32.1959 7.26199 32.4694 6.97572 32.8797H6.97003C6.71315 32.2958 5.75291 32.3958 5.75955 33.188C5.76239 33.4647 5.76902 33.7393 5.77756 34.016C5.74248 34.1454 5.75101 34.2811 5.79177 34.4052C5.9406 37.8939 6.56527 41.3469 7.10938 44.7798C7.80041 49.1291 8.12744 53.3659 8.05824 57.7836C7.91606 66.8946 6.90842 75.9951 7.54163 85.1104C7.57481 85.5765 7.92174 85.9016 8.34641 85.7911C17.0919 83.5102 25.5558 86.1225 34.2217 87.4839C34.5345 87.5333 34.9421 87.405 35.0037 86.9926C35.1895 85.7522 35.3298 84.3781 35.8891 83.2598C36.8654 84.9515 37.8077 86.5128 39.7471 86.9863C42.9691 87.7722 46.2745 86.3308 49.395 85.6059C52.5847 84.8621 55.4939 83.2408 57.7357 80.597C58.4334 79.7732 58.6922 78.8789 58.7111 77.951C58.9756 78.396 59.2505 78.8358 59.5443 79.2587C59.8107 79.6406 60.1984 79.7164 60.5434 79.4018C62.1852 77.9015 63.9948 76.9546 66.0821 76.5212C67.8595 76.1519 69.7013 76.1982 71.4985 76.0541C74.3252 75.8268 77.4808 75.3302 79.2771 72.6253C79.4819 72.3181 79.661 71.9983 79.8222 71.6721C80.062 71.7374 80.3293 71.6606 80.4933 71.3565C83.0062 66.7179 84.5144 60.8851 84.884 55.4879C85.1182 55.3564 85.2651 55.0881 85.1381 54.7294Z" fill="#1E1619"/>
</g>
<path d="M22.3699 74.1708C21.7509 73.5448 21.1385 72.8105 20.493 72.1108C21.0618 71.5901 21.621 71.0251 21.9604 70.3707C22.3699 69.5795 21.2703 68.8694 20.8617 69.6574C20.6257 70.114 20.0977 70.5443 19.7309 70.9136C19.6579 70.9851 19.584 71.0546 19.5119 71.1261C18.8607 70.5327 18.1621 70.0351 17.381 69.7573C16.598 69.4785 16.2644 70.841 17.0435 71.1177C17.5848 71.3092 18.09 71.6448 18.5678 72.0551C18.3147 72.3002 18.0616 72.5454 17.8114 72.7936C17.272 73.326 15.4624 74.7063 16.0274 75.7311C16.38 76.3749 17.1962 75.9951 17.2189 75.4028C17.236 75.3765 17.2597 75.3439 17.2976 75.2955C17.4834 75.0535 17.6938 74.8336 17.9014 74.6127C18.4057 74.0772 18.9356 73.568 19.4598 73.0556C19.4816 73.0356 19.5053 73.0146 19.5271 72.9935C20.0181 73.5248 20.4873 74.0898 20.9423 74.6022C20.8333 75.0693 21.1622 75.6658 21.7073 75.4912C22.0495 75.3818 22.2523 75.3734 22.4685 75.0262C22.6249 74.7758 22.568 74.3718 22.3699 74.1708Z" fill="#1E1619"/>
<path d="M26.882 70.861C25.9416 70.8462 24.9596 70.6695 24.1491 70.1108C23.4515 69.6279 22.8135 70.8484 23.5074 71.3292C24.5018 72.0162 25.7255 72.2529 26.882 72.2708C27.7038 72.2844 27.7019 70.8747 26.882 70.861Z" fill="#1E1619"/>
<path d="M30.2784 68.3875C29.7911 69.1608 28.9987 69.6469 28.3418 70.2202C28.0678 70.458 28.118 70.9714 28.3418 71.2176C28.6081 71.5143 28.9683 71.4554 29.2413 71.2176C30.0063 70.5506 30.8092 70.0014 31.376 69.0998C31.8481 68.3517 30.7447 67.6479 30.2784 68.3875Z" fill="#1E1619"/>
<path d="M32.0775 61.9246C31.7761 61.0913 30.5447 61.4543 30.8499 62.3002C31.0215 62.7757 30.9049 63.4091 30.8822 63.9067C30.8528 64.5485 30.8386 65.1976 30.9779 65.8278C31.1713 66.7105 32.3979 66.336 32.2045 65.4533C31.9562 64.3202 32.4718 63.0177 32.0775 61.9246Z" fill="#1E1619"/>
<path d="M30.0025 58.1171C28.9863 57.2702 27.9853 56.3969 27.0772 55.4059C26.4933 54.7672 25.5928 55.7646 26.1777 56.4032C27.1626 57.4785 28.2574 58.4159 29.3608 59.3343C30.0167 59.8835 30.6509 58.6568 30.0025 58.1171Z" fill="#1E1619"/>
<path d="M23.5965 49.5089C23.3131 50.6157 23.0894 51.733 23.4695 52.8461C23.7576 53.6889 24.988 53.3227 24.6961 52.4716C24.3937 51.5836 24.5984 50.763 24.824 49.8845C25.0487 49.0071 23.8211 48.6347 23.5965 49.5089Z" fill="#1E1619"/>
<path d="M28.0707 43.7951C26.8896 43.4258 25.7284 44.2043 25.061 45.248C24.5842 45.9918 25.6895 46.6957 26.1587 45.9603C26.4952 45.4363 27.1341 44.9692 27.7313 45.1554C28.5228 45.4037 28.8584 44.0413 28.0707 43.7951Z" fill="#1E1619"/>
<path d="M34.7118 43.0197C33.6074 42.2811 32.6396 41.0607 31.2699 41.8919C30.5495 42.3274 31.1912 43.5468 31.9126 43.1091C32.6064 42.6872 33.5145 43.8677 34.0691 44.238C34.7724 44.7093 35.4123 43.4879 34.7118 43.0197Z" fill="#1E1619"/>
<path d="M40.1831 47.6752C39.4077 47.0408 38.8523 46.1633 38.3755 45.248C37.965 44.461 36.8654 45.1723 37.2759 45.9603C37.8702 47.0976 38.5812 48.1086 39.5405 48.8945C40.2012 49.4363 40.8344 48.2107 40.1831 47.6752Z" fill="#1E1619"/>
<path d="M45.1199 52.2601C43.9227 52.0013 43.206 50.5568 42.0666 50.1444C41.2846 49.8614 40.9519 51.2238 41.7282 51.5058C42.0619 51.6257 42.6525 52.2338 43.0203 52.5442C43.5416 52.9798 44.1265 53.4795 44.7815 53.6205C45.5834 53.7951 45.9256 52.4358 45.1199 52.2601Z" fill="#1E1619"/>
<path d="M51.1259 55.2943C49.9723 54.6757 48.7504 54.258 47.538 53.813C46.7569 53.5268 46.4242 54.8893 47.2006 55.1734C48.3068 55.5805 49.431 55.9487 50.4832 56.5137C51.2188 56.9082 51.8634 55.691 51.1259 55.2943Z" fill="#1E1619"/>
<path d="M56.6579 56.3275C55.5839 56.1802 54.4976 56.055 53.4341 56.3527C52.6397 56.5758 52.9772 57.9372 53.7725 57.7141C54.7128 57.449 55.71 57.6089 56.6579 57.7383C57.4712 57.8499 57.4608 56.4369 56.6579 56.3275Z" fill="#1E1619"/>
<path d="M63.5294 53.7878C63.3891 55.167 62.4649 56.115 61.68 57.0987C61.1378 57.7773 62.0345 58.7788 62.5786 58.096C63.6299 56.7799 64.6157 55.6089 64.8015 53.7878C64.8934 52.8851 63.6194 52.8945 63.5294 53.7878Z" fill="#1E1619"/>
<path d="M66.9419 52.4716C66.6803 51.0239 66.3883 49.5773 65.6053 48.3527C65.1342 47.6162 64.0308 48.3201 64.5067 49.065C65.2299 50.1949 65.4736 51.5121 65.7143 52.8461C65.8764 53.7383 67.1021 53.3596 66.9419 52.4716Z" fill="#1E1619"/>
<path d="M64.7133 44.2612C64.191 43.3848 63.6611 42.4779 63.3787 41.4668C63.1388 40.5999 61.9103 40.9692 62.1521 41.8414C62.4668 42.9734 63.0279 43.9908 63.6166 44.9724C64.0669 45.7267 65.1693 45.0208 64.7133 44.2612Z" fill="#1E1619"/>
<path d="M61.3255 35.2301C60.8885 36.2443 60.6961 37.31 61.1984 38.3411C61.589 39.1428 62.6876 38.4294 62.298 37.6299C62.0279 37.0786 62.1957 36.4757 62.4241 35.9423C62.7767 35.127 61.68 34.4105 61.3255 35.2301Z" fill="#1E1619"/>
<path d="M59.296 28.0622C58.9509 27.7256 58.3955 26.8902 58.2428 26.2263C59.6249 26.5114 61.1852 26.1485 62.4668 25.7929C63.8905 25.4015 65.4546 24.8029 66.7694 23.8907C67.9201 26.3841 65.0934 27.8823 63.0175 28.4999C61.7634 28.8713 60.3425 29.087 59.296 28.0622ZM62.2127 24.4178C62.0222 24.4788 61.825 24.5398 61.6203 24.5967C61.6241 24.563 61.6288 24.5304 61.6279 24.4936C61.6241 24.1064 61.6004 23.7161 61.5729 23.3268C61.7577 23.7171 61.9672 24.0843 62.2127 24.4178ZM62.044 19.9412C61.9653 20.0285 61.8895 20.1158 61.8165 20.2084C61.7928 20.1295 61.7681 20.0496 61.7444 19.9738C61.844 19.9601 61.9435 19.9507 62.044 19.9412ZM66.5229 28.4041C66.667 28.2947 66.8073 28.1811 66.94 28.0601C66.8395 28.2284 66.7115 28.361 66.5229 28.4041ZM68.9837 29.2616C68.3638 31.8224 65.1314 31.9833 63.1606 32.2411C63.2422 31.9097 63.3682 31.5951 63.5057 31.2869C63.5844 31.1112 63.6697 30.9386 63.7569 30.7671C63.7929 30.6966 64.01 30.3852 63.8517 30.583C63.8839 30.543 63.9095 30.4999 63.9322 30.4578C64.2621 30.1285 64.8309 29.8939 65.2878 29.775C65.3475 29.7792 65.4072 29.7761 65.4641 29.7624C66.3428 29.5415 67.1789 30.1916 67.8092 29.1522C68.0708 28.7187 68.2699 28.2474 68.5126 27.8013C68.8188 27.2384 69.5932 26.8902 70.0482 26.4609C70.6738 25.8697 69.7695 24.8776 69.1477 25.4636C68.8169 25.7771 68.4756 26.0254 68.1581 26.301C68.5543 25.1858 68.3334 24.0801 67.7941 23.0564C67.9438 22.9102 68.0898 22.7629 68.2273 22.6082C68.7069 22.0601 68.2083 21.3278 67.6073 21.4288C67.3713 21.4678 67.1751 21.5488 66.9457 21.6119C66.7172 21.6761 66.5845 21.8328 66.5267 22.0212C66.3485 22.1432 66.212 22.3683 66.1873 22.6177C65.3399 23.2174 64.3702 23.6477 63.4242 23.9991C63.409 23.8728 63.3578 23.7455 63.2621 23.6287C62.8744 23.1553 62.5957 22.5525 62.3615 21.917C62.3881 21.8654 62.4146 21.8107 62.4326 21.7455C62.6507 20.9649 63.5351 20.3683 64.1266 19.9643C64.5607 19.6676 64.5427 18.7923 63.973 18.6766C62.9777 18.4725 61.9852 18.4725 60.988 18.6766C60.6923 18.7366 60.5539 18.9575 60.5321 19.2047C60.46 19.2857 60.405 19.3941 60.3776 19.5351C60.0609 21.1837 60.333 22.8302 60.3548 24.4936C60.3586 24.6398 60.3946 24.7587 60.4505 24.8586C59.7434 24.9723 59.0268 24.9964 58.3841 24.8292C58.3793 24.7639 58.3699 24.6977 58.35 24.6282C58.2836 24.4094 58.1253 24.1779 57.9044 24.1358C57.6314 24.0822 57.4551 24.1053 57.1812 24.1821C56.9944 24.2326 56.8759 24.3505 56.8058 24.4904C56.5148 24.7745 56.4323 25.3573 56.8646 25.654C56.8892 25.6708 56.9158 25.6845 56.9404 25.7003L56.9395 25.7056C56.8807 26.1338 56.9783 26.482 57.1309 26.8692C57.4911 27.7792 57.9272 28.6009 58.604 29.2637C58.8258 29.4815 59.0656 29.654 59.3149 29.7897C58.1509 30.1937 57.0598 31.2311 56.201 31.9591C55.5602 32.5052 56.1925 33.7308 56.8447 33.1775C57.4968 32.6241 58.1177 32.0254 58.8362 31.573C59.3377 31.2574 59.932 31.1417 60.4951 31.0722C60.9909 31.0102 61.5179 31.5025 62.0298 31.5246C61.9776 31.6866 61.9302 31.8487 61.898 32.0128C61.8686 32.1601 61.8809 32.2895 61.916 32.4042C60.0136 32.6609 58.022 33.027 56.5688 34.4557C55.9555 35.0607 56.8579 36.0549 57.4684 35.4521C60.7349 32.2443 68.8017 35.4584 70.2103 29.6372C70.4236 28.7576 69.197 28.3831 68.9837 29.2616Z" fill="#1E1619"/>
<path d="M57.6769 48.9913C57.2333 48.9334 56.9935 49.4816 57.0617 49.8845C57.1461 50.3706 57.0058 50.8398 56.8617 51.2933C56.8049 51.4732 56.7205 51.6457 56.6304 51.8109C56.474 51.2722 55.7366 50.9482 55.473 51.5984L55.4522 51.6573C55.3896 51.4805 55.401 51.2638 55.4892 51.0134C55.6484 50.1265 54.5014 49.7583 54.2635 50.6378C54.1336 51.1123 53.999 51.6247 53.5791 51.7236C53.563 51.2354 53.5545 50.7546 53.6047 50.2601C53.691 49.4016 52.5999 49.4037 52.3544 50.0729C52.0719 50.8661 51.7117 50.8987 51.2757 50.1654C51.3183 49.9613 51.3591 49.7551 51.3989 49.5479C51.4889 49.1007 51.5269 48.7651 51.7837 48.3737C52.0539 47.9561 51.9838 47.2112 51.5686 46.9419C51.3458 46.7977 51.0662 46.7977 51.0747 46.5368C51.0994 45.7562 51.3799 44.9113 51.8074 44.299C52.0245 43.9897 52.2719 43.7488 52.5373 43.5794C52.6909 44.0255 53.198 44.3106 53.545 43.8456C53.6995 43.6383 53.8644 43.4721 54.036 43.3374C54.3431 43.4195 54.6465 43.5762 54.9375 43.8151C55.455 44.2401 55.9517 43.5804 55.8314 43.0176C56.9044 43.3279 57.9234 44.3779 58.403 45.4879C58.914 46.6662 59.5358 49.2312 57.6769 48.9913ZM59.5984 45.0165C58.6457 42.6125 55.8825 40.682 53.7545 41.8519C52.8369 41.8129 51.9269 42.2422 51.1401 43.0239C50.2481 43.9097 48.9447 46.9987 50.3325 47.9014C50.4159 47.9561 50.4785 47.9834 50.5249 47.9992C50.4747 48.0266 50.4102 48.0834 50.3353 48.197C50.142 48.4937 50.2121 48.8461 50.1732 49.1744C50.0709 50.0118 49.7941 50.6925 50.2548 51.4637C50.8008 52.3748 51.615 52.3696 52.3155 51.9582C52.3212 52.0971 52.3269 52.2359 52.3316 52.3769C52.3421 52.6894 52.5184 52.9745 52.7999 53.0576C53.5298 53.2712 54.1109 53.1113 54.5574 52.7146C54.836 53.1323 55.2768 53.4174 55.8939 53.5058C55.9375 53.5121 55.9773 53.5111 56.0171 53.5037C56.2996 53.7436 56.6703 53.7657 57.1215 53.3501C57.8485 52.6778 58.2865 51.51 58.3386 50.4137C60.5785 50.1844 60.3539 46.9271 59.5984 45.0165Z" fill="#1E1619"/>
<path d="M53.7393 45.4658C53.6047 45.288 53.4037 45.2154 53.2009 45.2017C52.9961 45.1891 52.8141 45.309 52.6786 45.4742C52.6473 45.47 52.616 45.4647 52.5857 45.4637C52.2397 45.4447 51.9496 45.7961 51.9496 46.1696C51.9496 46.3422 51.9534 46.5084 52.0368 46.6652C52.1496 46.8787 52.361 47.0586 52.5184 47.2312C52.6359 47.3627 52.7999 47.4384 52.9677 47.4384C53.2113 47.4384 53.3781 47.2943 53.5175 47.0891C53.6417 46.905 53.7649 46.722 53.8891 46.5389C54.1071 46.218 53.944 45.7362 53.7393 45.4658Z" fill="#1E1619"/>
<path d="M56.6304 47.1786C56.6693 46.9818 56.6428 46.7798 56.5442 46.6178C56.4646 46.2706 56.2845 46.0002 55.8996 45.9708C55.673 45.9529 55.4673 46.1212 55.3517 46.3201C55.2787 46.4421 55.2598 46.5915 55.2579 46.7335C55.2579 46.8482 55.2863 46.9566 55.3318 47.0534L55.3327 47.0649C55.2901 47.2312 55.2635 47.4016 55.2579 47.5794C55.2465 47.9634 55.5565 48.2864 55.8939 48.2864H56.0209C56.365 48.2864 56.6617 47.9634 56.6579 47.5794C56.657 47.4447 56.6456 47.3122 56.6304 47.1786Z" fill="#1E1619"/>
<path d="M14.7818 45.5016C13.1969 45.2627 13.6159 43.1807 14.5107 42.4295C14.6339 42.5052 14.7866 42.5326 14.9629 42.4747C16.3279 42.0391 17.6644 41.4005 19.1024 41.3679C19.9991 41.3469 20.8362 42.2727 20.4314 43.2732C20.3461 43.4826 20.2238 43.6699 20.0807 43.8403C19.8826 44.015 19.6901 44.1959 19.5024 44.3769C19.2342 44.5768 18.9498 44.7504 18.6901 44.9019C17.5782 45.5468 16.0132 45.6878 14.7818 45.5016ZM14.7951 35.0817C15.2738 34.9944 15.7752 35.0207 15.707 35.5404C15.6899 35.6846 15.6956 35.8255 15.7316 35.9549C15.6747 36.0381 15.6207 36.1222 15.5676 36.2074C15.2852 35.8529 15.0074 35.4836 14.7951 35.0817ZM16.2179 37.8771C16.5838 38.5915 16.9175 39.3626 16.9573 40.1012C16.9611 40.1706 16.9734 40.2317 16.9914 40.2906C16.6682 40.3884 16.3487 40.4989 16.0416 40.6094C15.9876 39.7509 15.9781 38.7367 16.2179 37.8771ZM17.2303 35.0617C17.4511 35.0281 17.673 35.0512 17.8862 35.1101C17.6341 35.4079 17.3763 35.7025 17.0843 35.936C17.0786 35.8981 17.0739 35.8624 17.0616 35.8224C16.9573 35.4668 16.8473 35.1175 17.2303 35.0617ZM24.6601 43.1302C23.7282 42.1991 22.7405 42.2106 21.7879 42.6525C21.7755 42.2243 21.6627 41.7782 21.421 41.3206C20.7224 40.0013 19.5053 39.7961 18.2218 39.9981C18.1517 39.0944 17.8019 38.2043 17.3981 37.3689C18.1858 36.8713 18.746 36.0465 19.4427 35.3795C19.7669 35.0712 19.6389 34.501 19.3147 34.2727C18.5867 33.7571 17.6502 33.4899 16.7999 33.7298C16.6028 33.7856 16.4378 33.875 16.2975 33.9876C16.2179 33.9297 16.1288 33.876 16.0302 33.8308C15.3174 33.4962 14.4453 33.6656 13.7353 33.9202C13.4149 34.0328 13.1798 34.4105 13.2907 34.7861C13.6111 35.8908 14.324 36.7514 14.9979 37.6141C14.7354 38.643 14.7126 39.7645 14.7856 40.8124C13.1599 41.2122 11.8509 43.7298 12.5694 45.4069C13.1827 46.8366 14.7818 47.127 16.2852 46.9976C15.6245 47.1944 14.8159 47.0692 14.177 47.0492C12.485 46.9987 11.0868 47.3627 10.173 49.0586C9.75027 49.8424 10.8517 50.5505 11.2726 49.7709C12.1428 48.1528 13.7031 48.4653 15.1733 48.4832C16.307 48.4979 17.1706 48.2317 18.0986 47.5184C18.5005 47.2112 19.0901 46.5557 19.7555 45.8761C20.2702 45.5352 20.7489 45.1091 21.1129 44.6189C22.0779 43.8487 23.0505 43.4184 23.7614 44.1275C24.3681 44.7346 25.2715 43.7414 24.6601 43.1302Z" fill="#1E1619"/>
<path d="M23.8704 45.0649C20.8883 44.5452 19.8257 47.9224 17.6066 49.2754C16.4473 49.9824 14.8662 49.3911 13.614 49.6089C12.54 49.7972 11.6357 50.4379 10.6565 50.9219C9.90668 51.2901 10.5551 52.5063 11.2982 52.1391C12.2262 51.6815 13.0632 51.0713 14.0955 50.964C15.2908 50.8367 16.4577 51.1197 17.6379 50.7683C19.8788 50.1034 21.0314 45.9897 23.532 46.4253C24.334 46.5663 24.679 45.2059 23.8704 45.0649Z" fill="#1E1619"/>
<path d="M76.4912 70.5022C76.3651 70.3591 76.3272 70.3118 76.239 70.1434C76.221 70.1056 76.2134 70.0845 76.2097 70.0803C76.2011 70.053 76.1916 70.0267 76.186 69.9993C76.1793 69.9751 76.1755 69.9509 76.1708 69.9267C76.1708 69.9162 76.1708 69.9025 76.1679 69.8731C76.1594 69.488 75.8864 69.1682 75.5328 69.1682C75.1935 69.1682 74.8864 69.488 74.8958 69.8731C74.912 70.5138 75.1963 71.0493 75.5907 71.4996C75.8333 71.7763 76.2485 71.7689 76.4912 71.4996C76.7386 71.226 76.7329 70.7779 76.4912 70.5022Z" fill="#1E1619"/>
<path d="M78.1169 68.7642C78.1614 68.8694 78.0856 68.6316 78.0875 68.6411C78.059 68.5232 78.0609 68.5075 78.0524 68.4212C78.0335 68.215 78.0354 68.0088 78.0354 67.8036C78.0335 66.8936 76.7623 66.8936 76.7623 67.8036C76.7623 68.3823 76.8002 68.942 77.0192 69.4764C77.1633 69.8268 77.6126 69.9099 77.8894 69.7289C78.2098 69.5206 78.2629 69.1145 78.1169 68.7642Z" fill="#1E1619"/>
<path d="M79.1776 66.2718C79.0325 66.013 78.8107 65.8257 78.5681 65.6889C78.26 65.5153 77.8808 65.5963 77.6979 65.9425C77.5301 66.2602 77.6173 66.7326 77.9263 66.9083C77.9842 66.9409 78.041 66.9767 78.096 67.0166L78.1102 67.0682L78.115 67.0819C78.1188 67.1345 78.1188 67.186 78.1197 67.2397C78.1244 67.6237 78.405 67.9435 78.7558 67.9435C79.0989 67.9435 79.3965 67.6237 79.3918 67.2397C79.389 66.9041 79.3416 66.5611 79.1776 66.2718Z" fill="#1E1619"/>
</svg>
