<svg xmlns="http://www.w3.org/2000/svg" xmlns:xlink="http://www.w3.org/1999/xlink" width="500" zoomAndPan="magnify" viewBox="0 0 375 374.999991" height="500" preserveAspectRatio="xMidYMid meet" version="1.0"><path fill="#000000" d="M 143.953125 103.179688 C 136.582031 101.039062 128.269531 103.792969 122.765625 109.289062 C 120 112.0625 117.929688 115.660156 117.207031 119.640625 C 116.828125 121.722656 116.628906 123.910156 116.769531 126.03125 C 116.902344 128.234375 117.816406 130.273438 118.753906 132.234375 C 119.648438 134.140625 121.945312 132.945312 122.136719 131.269531 C 122.328125 129.710938 122.785156 128.214844 122.992188 126.675781 C 123.207031 125.160156 123.398438 123.683594 123.875 122.210938 C 124.617188 119.824219 125.898438 117.4375 127.578125 115.640625 C 131.402344 111.511719 137.570312 109.53125 142.792969 111.550781 C 148.765625 113.882812 152.015625 120.695312 150.625 127.226562 C 149.097656 134.382812 142.175781 138.382812 137.898438 143.578125 C 134.84375 147.300781 132.546875 151.527344 131 156.175781 C 129.566406 160.523438 128.082031 166.792969 130.523438 170.976562 C 132.183594 173.828125 136.484375 174.132812 138.089844 170.976562 C 139.289062 168.613281 139.234375 166.042969 139.5625 163.4375 C 139.828125 161.25 140.34375 159.109375 141.054688 157.027344 C 142.441406 152.945312 144.949219 149.609375 147.777344 146.535156 C 150.757812 143.277344 153.929688 140.101562 156.070312 136.140625 C 158.207031 132.15625 159.296875 127.386719 158.953125 122.816406 C 158.261719 113.578125 152.460938 105.691406 143.933594 103.21875 Z M 143.953125 103.179688 " fill-opacity="1" fill-rule="nonzero"/><path fill="#000000" d="M 138.261719 182.625 C 137.609375 181.859375 136.789062 181.46875 135.910156 181.128906 C 135.8125 181.085938 135.738281 181.066406 135.640625 181.046875 C 135.183594 180.964844 134.671875 180.84375 134.171875 180.867188 C 133.578125 180.867188 132.972656 180.964844 132.394531 181.148438 C 132.28125 181.1875 132.183594 181.1875 132.070312 181.226562 C 131.167969 181.550781 130.578125 181.839844 129.914062 182.5625 C 129.355469 183.167969 128.859375 184 128.691406 184.824219 C 128.59375 185.335938 128.460938 185.878906 128.5 186.402344 C 128.59375 187.660156 128.671875 187.902344 129.144531 189.015625 C 129.429688 189.539062 129.835938 189.941406 130.273438 190.304688 C 130.484375 190.652344 130.730469 190.957031 131.054688 191.175781 C 131.402344 191.519531 131.824219 191.742188 132.296875 191.863281 C 132.738281 192.003906 133.199219 192.023438 133.636719 192.070312 C 133.769531 192.070312 133.902344 192.070312 134.035156 192.070312 C 134.4375 192.023438 134.957031 191.980469 135.394531 191.839844 C 135.832031 191.71875 136.277344 191.480469 136.695312 191.277344 C 136.808594 191.21875 136.921875 191.15625 137.019531 191.074219 C 137.34375 190.835938 137.664062 190.574219 137.976562 190.285156 C 138.035156 190.242188 138.070312 190.183594 138.109375 190.121094 C 138.375 189.78125 138.738281 189.355469 138.945312 188.933594 C 139.175781 188.484375 139.390625 188 139.503906 187.496094 C 139.621094 187.074219 139.695312 186.304688 139.695312 186.121094 C 139.695312 185.1875 139.46875 184.542969 139.0625 183.738281 C 138.851562 183.308594 138.527344 182.925781 138.242188 182.5625 Z M 138.261719 182.625 " fill-opacity="1" fill-rule="nonzero"/><path fill="#000000" d="M 343.652344 184.523438 C 340.480469 175.851562 335.398438 168.695312 328.386719 163.117188 C 322.0625 158.082031 314.25 154.964844 306.679688 152.71875 C 296.917969 149.832031 286.773438 148.351562 276.726562 147.097656 C 267.078125 145.882812 257.371094 145.199219 247.664062 144.9375 C 248.3125 139.800781 248.636719 134.625 248.617188 129.488281 C 248.558594 110.707031 243.761719 91.417969 231.5 77.339844 C 216.960938 60.664062 196.058594 54.65625 175.59375 51.402344 C 152.992188 47.804688 129.855469 46.425781 107.082031 48.898438 C 87.226562 51.039062 67.664062 57.25 52.070312 70.917969 C 36.710938 84.375 28.039062 104.578125 25.363281 125.199219 C 22.648438 146.089844 25.25 168.144531 34.460938 187.015625 C 43.304688 205.125 58.488281 219.929688 76.664062 226.925781 C 80.140625 228.261719 83.789062 229.027344 87.472656 229.570312 C 86.023438 231.699219 84.59375 233.820312 83.121094 235.917969 C 80.882812 239.117188 78.746094 242.410156 76.550781 245.667969 C 74.464844 248.78125 70.207031 252.964844 71.3125 257.03125 C 72.421875 261.054688 76.664062 262.351562 80.140625 261.15625 C 83.371094 260.0625 86.445312 257.636719 89.3125 255.757812 C 95.023438 252.019531 100.5625 247.992188 105.898438 243.707031 C 109.085938 241.136719 112.222656 238.511719 115.277344 235.777344 C 118.195312 233.175781 121.660156 230.523438 124.007812 227.328125 C 124.386719 226.824219 124.691406 226.28125 124.945312 225.710938 C 135.507812 226.480469 146.113281 226.171875 156.714844 225.808594 C 157.351562 225.789062 157.976562 225.75 158.585938 225.730469 C 158.207031 226.804688 157.84375 227.871094 157.484375 228.945312 C 156.46875 232.039062 155.746094 235.175781 155.207031 238.410156 C 154.160156 244.753906 153.753906 251.105469 154.160156 257.535156 C 154.902344 270.03125 157.789062 283.09375 164.910156 293.324219 C 178.023438 312.167969 199.917969 319.445312 221.21875 320.070312 C 227.695312 320.257812 234.152344 319.769531 240.609375 319.023438 C 243.859375 318.660156 247.089844 318.210938 250.316406 317.726562 C 251.828125 317.503906 253.375 317.34375 254.863281 317.023438 C 256.03125 316.78125 257.066406 316.230469 258.054688 315.625 C 266.554688 329.191406 282.128906 338.390625 297.296875 338.410156 C 303.375 338.410156 304.5625 329.191406 298.921875 327.234375 C 298.847656 327.152344 298.808594 327.113281 298.789062 327.089844 C 298.390625 326.441406 298.046875 325.777344 297.722656 325.085938 C 296.726562 322.984375 295.890625 320.78125 294.96875 318.640625 C 293.460938 315.082031 291.949219 311.539062 290.421875 307.980469 C 292.386719 308.289062 294.417969 308.410156 296.402344 308.53125 C 300.433594 308.792969 304.523438 308.410156 308.515625 307.757812 C 316.632812 306.449219 324.449219 302.78125 329.992188 296.238281 C 336.148438 288.953125 339.890625 279.476562 343.042969 270.390625 C 346.234375 261.214844 348.144531 251.589844 349.253906 241.910156 C 350.375 232.121094 350.148438 222.472656 349.328125 212.691406 C 348.503906 203.144531 346.957031 193.5 343.671875 184.542969 Z M 76.855469 250.921875 C 76.855469 250.921875 76.816406 250.921875 76.777344 250.945312 C 76.835938 250.945312 76.816406 250.945312 76.855469 250.921875 Z M 136.21875 218.03125 C 131.957031 218.191406 127.769531 218.652344 123.589844 219.257812 C 121.984375 217.886719 119.574219 217.378906 117.757812 218.714844 C 113.976562 221.488281 110.730469 225.246094 107.214844 228.402344 C 103.949219 231.335938 100.585938 234.160156 97.121094 236.851562 C 94.261719 239.09375 91.316406 241.214844 88.335938 243.304688 C 89.097656 241.847656 89.847656 240.390625 90.570312 238.914062 C 93.722656 232.503906 97.046875 226.152344 99.535156 219.40625 C 100.238281 217.480469 97.492188 215.839844 96.246094 217.378906 C 95.652344 218.128906 95.082031 218.894531 94.507812 219.648438 C 93.894531 218.996094 93.09375 218.492188 92.0625 218.292969 C 83.371094 216.492188 76.144531 213.378906 68.867188 208.421875 C 62.371094 204.011719 55.628906 197.179688 51.175781 190.714844 C 40.777344 175.589844 36.445312 157.75 36.617188 139.316406 C 36.789062 121.320312 41.601562 102.132812 52.761719 88.324219 C 64.320312 74.003906 80.425781 66.625 97.871094 63.148438 C 106.867188 61.351562 116.628906 60.726562 126.355469 60.539062 C 137.191406 60.335938 148.042969 60.847656 158.839844 61.953125 C 177.882812 63.894531 198.121094 66.726562 214.207031 78.011719 C 221.125 82.867188 226.457031 88.988281 230.351562 96.675781 C 233.792969 103.46875 235.984375 111.046875 237.191406 119.320312 C 237.691406 122.714844 237.996094 127.449219 238.035156 131.53125 C 238.074219 135.960938 237.863281 140.40625 237.402344 144.816406 C 237.285156 145.84375 237.171875 146.898438 237.019531 147.949219 C 236.714844 148.757812 236.582031 149.628906 236.640625 150.496094 C 235.585938 156.988281 233.925781 163.558594 231.785156 169.742188 C 229.261719 177.023438 225.863281 184.179688 221.390625 190.363281 C 215.890625 197.992188 208.472656 203.648438 200.335938 207.738281 C 180.542969 217.640625 157.597656 217.21875 136.21875 218.070312 Z M 341.152344 232.160156 C 340.078125 249.609375 335.511719 267.40625 327.734375 282.871094 C 325.636719 287.035156 323.476562 290.996094 320.097656 294.148438 C 317.210938 296.84375 313.640625 298.640625 310.003906 299.835938 C 306.015625 301.144531 301.960938 301.695312 297.816406 302.179688 C 295.8125 302.421875 293.785156 302.664062 291.777344 302.824219 C 290.308594 302.945312 288.890625 303.3125 287.476562 303.65625 C 285.929688 302.863281 283.925781 302.902344 282.53125 303.777344 C 279.953125 305.375 279.585938 308.449219 280.714844 311.113281 C 282.644531 315.726562 284.597656 320.339844 286.527344 324.921875 C 286.316406 324.863281 286.144531 324.824219 285.910156 324.742188 C 281.902344 323.425781 278.558594 321.9375 274.929688 319.605469 C 267.839844 315.101562 261.957031 309.234375 257.066406 302.179688 C 255.632812 300.117188 252.167969 301.226562 252.9375 304.019531 C 253.144531 304.832031 253.429688 305.597656 253.699219 306.382812 C 252.804688 306.363281 251.863281 306.382812 250.875 306.488281 C 248.273438 306.75 245.652344 306.972656 243.039062 307.152344 C 237.648438 307.535156 232.261719 307.65625 226.875 307.675781 C 217.191406 307.71875 208.054688 307.152344 198.824219 304.039062 C 190.515625 301.226562 182.71875 296.519531 176.761719 289.625 C 170.191406 282.019531 167.152344 271.484375 165.449219 261.253906 C 164.417969 255.027344 164.207031 248.640625 164.320312 242.332031 C 164.398438 238.933594 164.722656 235.558594 165.007812 232.179688 C 165.203125 229.898438 165.699219 227.546875 165.886719 225.246094 C 174.675781 224.539062 183.46875 223.207031 191.910156 220.59375 C 201.824219 217.539062 211.207031 212.753906 219.234375 205.839844 C 226.128906 199.890625 231.558594 192.042969 235.796875 183.839844 C 240.34375 175.046875 243.707031 165.457031 245.851562 155.589844 C 262.699219 155.832031 279.726562 157.308594 296.230469 160.867188 C 309.546875 163.738281 324.523438 168.9375 332.4375 181.53125 C 337.003906 188.792969 338.914062 197.347656 340.269531 205.839844 C 341.648438 214.570312 341.722656 223.367188 341.171875 232.179688 Z M 341.152344 232.160156 " fill-opacity="1" fill-rule="nonzero"/><path fill="#000000" d="M 259.605469 183.105469 C 253.96875 194.511719 249.804688 206.605469 246.917969 219.097656 C 245.503906 225.226562 244.320312 231.414062 243.382812 237.640625 C 242.886719 241.015625 242.445312 244.414062 242.042969 247.808594 C 241.605469 251.648438 241.054688 255.835938 244.152344 258.691406 C 245.691406 260.121094 248.234375 260.851562 250.109375 259.496094 C 253.660156 256.925781 253.914062 253.367188 254.140625 249.144531 C 254.292969 245.988281 254.523438 242.855469 254.808594 239.699219 C 255.339844 233.777344 256.128906 227.890625 257.144531 222.050781 C 259.261719 209.757812 262.089844 197.609375 265.1875 185.558594 C 266.0625 182.101562 261.246094 179.75 259.605469 183.066406 Z M 259.605469 183.105469 " fill-opacity="1" fill-rule="nonzero"/><path fill="#000000" d="M 253.164062 268.773438 C 252.898438 268.25 252.539062 267.746094 252.113281 267.34375 C 251.273438 266.511719 250.703125 266.210938 249.652344 265.785156 C 248.464844 265.296875 246.972656 265.355469 245.753906 265.6875 C 244.511719 266.007812 243.269531 266.792969 242.367188 267.746094 C 241.339844 268.855469 240.761719 270.089844 240.25 271.527344 C 240.136719 271.867188 240.039062 272.25 239.964844 272.621094 C 239.699219 274.015625 239.699219 275.347656 240.421875 276.640625 C 240.496094 276.78125 240.574219 276.902344 240.667969 277.023438 C 241.054688 277.695312 241.550781 278.238281 242.175781 278.621094 C 242.292969 278.703125 242.40625 278.722656 242.527344 278.785156 C 243.15625 279.414062 243.992188 279.917969 244.796875 280.121094 C 247.242188 280.742188 249.667969 279.695312 251.484375 277.976562 C 251.65625 277.816406 251.828125 277.636719 251.960938 277.433594 C 252.328125 276.964844 252.746094 276.460938 253.011719 275.917969 C 253.621094 274.703125 253.875 273.648438 253.972656 272.300781 C 254.007812 271.707031 253.894531 271.0625 253.792969 270.492188 C 253.679688 269.886719 253.429688 269.304688 253.144531 268.753906 Z M 249.308594 277.898438 C 249.308594 277.898438 249.367188 277.835938 249.402344 277.816406 C 249.535156 277.714844 249.667969 277.617188 249.785156 277.515625 C 249.632812 277.65625 249.460938 277.777344 249.308594 277.917969 Z M 249.308594 277.898438 " fill-opacity="1" fill-rule="nonzero"/><path fill="#000000" d="M 265.433594 86.585938 C 264.742188 84.664062 263.847656 83.351562 262.492188 81.914062 C 261.191406 80.515625 258.285156 80.980469 257.960938 83.167969 C 257.695312 84.988281 257.542969 86.585938 257.882812 88.40625 C 258.1875 90.023438 258.671875 91.640625 259.050781 93.238281 C 259.832031 96.445312 260.789062 99.621094 261.570312 102.835938 C 263.117188 109.25 264.683594 115.660156 265.871094 122.152344 C 266.421875 125.140625 271.011719 124.453125 270.894531 121.421875 C 270.628906 114.605469 270.117188 107.773438 268.910156 101.058594 C 268.339844 97.804688 267.761719 94.488281 266.886719 91.3125 C 266.441406 89.71875 265.984375 88.121094 265.433594 86.566406 Z M 265.433594 86.585938 " fill-opacity="1" fill-rule="nonzero"/><path fill="#000000" d="M 288.300781 123.378906 C 291.1875 117.097656 293.746094 110.664062 296.136719 104.152344 C 297.296875 101 298.503906 97.863281 299.746094 94.730469 C 300.875 91.882812 303.792969 86.445312 299.746094 84.625 C 295.578125 82.757812 293.972656 89.128906 292.945312 92.042969 C 291.835938 95.199219 290.765625 98.394531 289.738281 101.5625 C 287.59375 108.175781 285.890625 114.929688 284.882812 121.84375 C 284.578125 123.871094 287.289062 125.570312 288.300781 123.359375 Z M 288.300781 123.378906 " fill-opacity="1" fill-rule="nonzero"/><path fill="#000000" d="M 305.417969 130.925781 C 308.4375 126.835938 311.742188 122.996094 315.320312 119.460938 C 319.023438 115.78125 322.824219 112.949219 326.726562 109.589844 C 327.90625 108.585938 327.832031 106.457031 326.972656 105.289062 C 326.054688 104.054688 324.296875 103.550781 322.976562 104.4375 C 318.683594 107.371094 314.839844 111.308594 311.324219 115.210938 C 307.789062 119.136719 304.5625 123.359375 301.636719 127.832031 C 300.089844 130.175781 303.738281 133.207031 305.417969 130.925781 Z M 305.417969 130.925781 " fill-opacity="1" fill-rule="nonzero"/><path fill="#000000" d="M 24.613281 96.183594 C 27.710938 93.15625 28.878906 88.003906 30.558594 84.054688 C 32.355469 79.832031 34.613281 75.925781 37.074219 72.125 C 41.753906 64.847656 48.023438 58.277344 54.898438 53.320312 C 58.035156 51.058594 55.355469 46.40625 51.976562 48.023438 C 43.246094 52.171875 35.886719 58.398438 29.929688 66.304688 C 26.988281 70.226562 24.519531 74.574219 22.535156 79.101562 C 20.566406 83.589844 17.929688 89.839844 19.6875 94.835938 C 20.472656 97.039062 22.894531 97.902344 24.613281 96.207031 Z M 24.613281 96.183594 " fill-opacity="1" fill-rule="nonzero"/></svg>