<svg width="69" height="56" viewBox="0 0 69 56" fill="none" xmlns="http://www.w3.org/2000/svg">
<path d="M67.4923 12.4458C66.8811 11.5145 66.0059 10.7383 64.9519 10.1931C63.898 9.64784 62.7014 9.35215 61.4789 9.33483H16.2011L14.1494 2.30397C13.9421 1.62526 13.4797 1.02828 12.8374 0.610249C12.195 0.192217 11.4107 -0.0222336 10.6121 0.00182454H3.53745C2.59929 0.00182454 1.69956 0.32959 1.03618 0.913016C0.372803 1.49644 0.00012207 2.28774 0.00012207 3.11283C0.00012207 3.93792 0.372803 4.72921 1.03618 5.31264C1.69956 5.89606 2.59929 6.22383 3.53745 6.22383H7.92373L17.6868 38.1427C17.894 38.8214 18.3565 39.4184 18.9988 39.8364C19.6412 40.2545 20.4255 40.4689 21.2241 40.4449H53.06C53.7132 40.4431 54.3532 40.2823 54.9089 39.9803C55.4645 39.6783 55.9143 39.2468 56.2082 38.7338L67.8107 18.3256C68.3136 17.3986 68.5477 16.3765 68.4921 15.3505C68.4366 14.3246 68.0931 13.3266 67.4923 12.4458ZM50.8669 34.2229H23.9124L18.1466 15.5568H61.4789L50.8669 34.2229Z" fill="#BACE9A"/>
<path d="M19.4554 56C22.3858 56 24.7614 53.9107 24.7614 51.3335C24.7614 48.7563 22.3858 46.667 19.4554 46.667C16.525 46.667 14.1494 48.7563 14.1494 51.3335C14.1494 53.9107 16.525 56 19.4554 56Z" fill="#BACE9A"/>
<path d="M54.8287 56C57.7591 56 60.1347 53.9107 60.1347 51.3335C60.1347 48.7563 57.7591 46.667 54.8287 46.667C51.8983 46.667 49.5227 48.7563 49.5227 51.3335C49.5227 53.9107 51.8983 56 54.8287 56Z" fill="#BACE9A"/>
</svg>
