<svg width="49" height="52" viewBox="0 0 49 52" fill="none" xmlns="http://www.w3.org/2000/svg">
<path d="M34.1001 30.8316C31.0251 30.8316 29.5466 32.4422 24.5001 32.4422C19.4537 32.4422 17.9858 30.8316 14.9001 30.8316C6.95012 30.8316 0.500122 36.8913 0.500122 44.3602V46.9371C0.500122 49.6046 2.80369 51.7687 5.64298 51.7687H43.3573C46.1966 51.7687 48.5001 49.6046 48.5001 46.9371V44.3602C48.5001 36.8913 42.0501 30.8316 34.1001 30.8316ZM43.3573 46.9371H5.64298V44.3602C5.64298 39.5689 9.80012 35.6633 14.9001 35.6633C16.4644 35.6633 19.0037 37.2738 24.5001 37.2738C30.0394 37.2738 32.5251 35.6633 34.1001 35.6633C39.2001 35.6633 43.3573 39.5689 43.3573 44.3602V46.9371ZM24.5001 29.2211C33.018 29.2211 39.9287 22.7286 39.9287 14.7262C39.9287 6.72378 33.018 0.231262 24.5001 0.231262C15.9823 0.231262 9.07155 6.72378 9.07155 14.7262C9.07155 22.7286 15.9823 29.2211 24.5001 29.2211ZM24.5001 5.0629C30.168 5.0629 34.7858 9.40131 34.7858 14.7262C34.7858 20.051 30.168 24.3895 24.5001 24.3895C18.8323 24.3895 14.2144 20.051 14.2144 14.7262C14.2144 9.40131 18.8323 5.0629 24.5001 5.0629Z" fill="#C4A374"/>
</svg>
